<svg width="14" height="14" viewBox="0 0 14 14" fill="none" xmlns="http://www.w3.org/2000/svg">
<path d="M12.9722 1.251C12.7426 1.12325 12.4901 1.04201 12.2291 1.01193C11.9681 0.981844 11.7037 1.0035 11.4511 1.07567C11.1985 1.14783 10.9626 1.26908 10.7568 1.43249C10.5511 1.5959 10.3796 1.79826 10.2522 2.028L6.53916 8.71L4.41416 6.585C4.22967 6.39398 4.00898 6.24162 3.76497 6.1368C3.52096 6.03198 3.25852 5.97681 2.99296 5.9745C2.72741 5.97219 2.46405 6.0228 2.21825 6.12336C1.97246 6.22392 1.74916 6.37243 1.56137 6.56021C1.37359 6.748 1.22508 6.9713 1.12452 7.21709C1.02396 7.46289 0.973354 7.72625 0.975661 7.9918C0.977969 8.25736 1.03314 8.5198 1.13796 8.76381C1.24278 9.00782 1.39514 9.22851 1.58616 9.413L5.58616 13.413C5.96416 13.792 6.47416 14 7.00016 14L7.27716 13.98C7.58371 13.9371 7.87612 13.8237 8.13138 13.6486C8.38664 13.4735 8.59777 13.2415 8.74816 12.971L13.7482 3.971C13.8758 3.74145 13.957 3.48901 13.9871 3.22808C14.0172 2.96715 13.9956 2.70286 13.9235 2.45028C13.8515 2.1977 13.7304 1.96179 13.5671 1.75602C13.4039 1.55024 13.2017 1.37864 12.9722 1.251Z" fill="#FF7D05"/>
</svg>
