<?xml version="1.0" encoding="utf-8"?>
<!-- Generator: Adobe Illustrator 24.1.2, SVG Export Plug-In . SVG Version: 6.00 Build 0)  -->
<svg version="1.1" id="Capa_1" xmlns="http://www.w3.org/2000/svg" xmlns:xlink="http://www.w3.org/1999/xlink" x="0px" y="0px"
	 viewBox="0 0 14 14" style="enable-background:new 0 0 14 14;" xml:space="preserve">
<style type="text/css">
	.st0{fill:#FFFFFF;}
</style>
<path class="st0" d="M12.9,0.3c-0.2-0.1-0.5-0.2-0.8-0.3c-0.3,0-0.6,0-0.8,0.1c-0.3,0.1-0.5,0.2-0.7,0.4c-0.2,0.2-0.4,0.4-0.5,0.6
	L6,8.3L3.7,6C3.5,5.8,3.3,5.7,3,5.5C2.7,5.4,2.5,5.4,2.2,5.4c-0.3,0-0.6,0.1-0.8,0.2C1.1,5.6,0.8,5.8,0.6,6C0.4,6.2,0.3,6.4,0.2,6.7
	C0.1,7,0,7.3,0,7.5c0,0.3,0.1,0.6,0.2,0.8s0.3,0.5,0.5,0.7L5,13.4c0.4,0.4,1,0.6,1.5,0.6l0.3,0c0.3,0,0.6-0.2,0.9-0.4
	c0.3-0.2,0.5-0.4,0.7-0.7l5.4-9.7C13.9,3,14,2.7,14,2.4c0-0.3,0-0.6-0.1-0.8c-0.1-0.3-0.2-0.5-0.4-0.7C13.4,0.6,13.1,0.4,12.9,0.3z"
	/>
</svg>
