<svg id="Capa_1" data-name="Capa 1" xmlns="http://www.w3.org/2000/svg" viewBox="0 0 169.72 145.8"><defs><style>.cls-1{fill:#ff7a00;}</style></defs><path class="cls-1" d="M17.37,59.21c.24-.36.36-.36.36-.6C18.81,53,18.81,53,24.93,53H144.25c2,0,4.56-.6,6.12.36,1.08.72,1.32,3.23,2.28,5.51,3-1.08,6.23-2.52,9.47-3.59,3.24-1.32,6.12-.24,7.2,2.87,1.07,2.64,0,5.16-3.24,6.48-3.6,1.56-7.44,3-11,4.2-2.51,1-3.59,2.28-3.59,4.91.24,9.12-.24,18,0,26.87.36,14.75-7,25.54-18.35,33.69-10.43,7.56-22.55,11-35.38,11.52-15.11.72-30.34,1-44.85-3.84-10.19-3.24-19.67-7.92-26.74-16.67-5.28-6.84-8.28-14.15-8.28-22.91V73.21c0-2.27-.6-3.35-2.63-4.19-4-1.32-7.8-3-11.52-4.56-3.23-1.32-4.55-4-3.23-6.84s3.59-3.83,7-2.63ZM126.26,102v.36h12.83c4.68-.24,7-2.27,6.6-6.83-1-10.19-4.2-19.31-13.31-25.18-7.2-4.56-15.11-5.16-23.63-3.36-15.94,3.36-27.1,22.9-21.22,38a31.41,31.41,0,0,0,20.87,19.91c11.51,3.6,21.82.6,30.81-7,1.92-1.67,2.28-3.35.24-5.27l-5.13-5.15c-1.68-1.68-3.24-1.68-5.28-.6a26.25,26.25,0,0,1-6.47,3c-5.88,2-13.44,0-16.43-4.32a19.55,19.55,0,0,1-1-3,10.86,10.86,0,0,1,2.64-.72c6.11.12,12.35.12,18.46.12ZM30.81,91.31h0v29.9c0,4,.24,4.2,4.31,4.2,3.36,0,6.84-.24,10.2,0s4.31-1,4.31-4.2c-.24-4.91,0-9.83,0-14.75,0-2.88.72-4.2,3.84-3.84,2.52.24,4.68,0,7.2,0,16.43,0,26.74-12.35,23.5-28.42-1.92-9.71-9.23-16.67-18.71-16.91-10.19-.36-20.62,0-31.06-.24-2.64,0-3.59,1.08-3.59,3.84Z"/><path class="cls-1" d="M150.25,47.42H19.32c2.64-2.28,4.56-4,6.6-5.64A97.11,97.11,0,0,1,72.66,22.21c2.88-.36,3.6-1.32,2.64-4A83.76,83.76,0,0,1,72.66,9.7c-.72-2.88-.24-5.28,2.64-7C81.53-.9,88-.66,94.24,2c3.84,1.56,4.68,4.32,3.6,8.75-.72,2.88-1.56,5.52-2.28,8.16-.72,2.28,0,3,2.28,3.36a93.58,93.58,0,0,1,47.49,20c1.68,1.32,3.36,3,5.28,4.32Z"/><path class="cls-1" d="M125.9,88H106.32c.72-3.23,4.55-6.83,7.79-7.19C119.07,80.21,123,82.44,125.9,88Z"/><path class="cls-1" d="M56,73c6.59,0,9.71,2.28,9.83,7,0,4.92-3,7.19-9.83,7.19s-6.24,1-6.24-6.23V79.56C49.63,71.88,48.79,73,56,73Z"/></svg>