<svg xmlns="http://www.w3.org/2000/svg" viewBox="0 0 145.5 21.9"><defs><style>.cls-1{fill:#0074b2;}.cls-2{fill:#003356;}</style></defs><title>GraphicG4 Logo</title><g id="Layer_2" data-name="Layer 2"><g id="Layer_1-2" data-name="Layer 1"><path class="cls-1" d="M43.92,7.71H46v5.56h2.64V16.1H46v2.67l2.48.15v2.53H39.7V19l1.84-.15c.58,0,.87-.31.87-.83v-2H34.79V13.6L40.38,1.84l2.83,1.4-4.79,10h4.25V11.66Z"/><path class="cls-2" d="M15.59,14.52v5.39a11.81,11.81,0,0,1-6.87,1.9A8.17,8.17,0,0,1,2.3,19.24C.77,17.52,0,15,0,11.6a12.86,12.86,0,0,1,.58-4A9.2,9.2,0,0,1,2.1,4.64,8.41,8.41,0,0,1,4.29,2.71a10.35,10.35,0,0,1,5.4-1.4,13.12,13.12,0,0,1,5.64,1.22V7.59l-3,.21V5.47a1.36,1.36,0,0,0-.12-.65c-.22-.38-1.12-.57-2.71-.57-3.83,0-5.74,2.38-5.74,7.11,0,5,1.73,7.5,5.18,7.5a5.85,5.85,0,0,0,3.15-.71V13.72h0l-2.29-.09V11.1h7.41v2.38l-.68.06a1.2,1.2,0,0,0-.68.25A1.08,1.08,0,0,0,15.59,14.52Z"/><path class="cls-2" d="M18.87,14a10.32,10.32,0,0,1,.65-3.82,5.86,5.86,0,0,1,1.75-2.48A7.57,7.57,0,0,1,26,6a7,7,0,0,1,3,.58A6.08,6.08,0,0,1,30.9,8a6.1,6.1,0,0,1,1.19,2.2,10.52,10.52,0,0,1,.5,3.41q0,4.11-2,6.22a6.7,6.7,0,0,1-5.1,2.11,6.12,6.12,0,0,1-4.87-2Q18.86,17.88,18.87,14Zm6.84,5.33q3.24,0,3.24-5.23a8.71,8.71,0,0,0-.73-4,2.53,2.53,0,0,0-2.44-1.37A2.72,2.72,0,0,0,23.27,10a6.75,6.75,0,0,0-.8,3.57c0,2.8.51,4.55,1.55,5.27A2.9,2.9,0,0,0,25.71,19.28Z"/><path class="cls-2" d="M62.52,4.82c-.22-.38-1-.57-2.44-.57a5,5,0,0,0-4.2,1.88,8.81,8.81,0,0,0-1.42,5.41q0,7.35,5.5,7.35h.79a4.46,4.46,0,0,0,1.33-.19,1.37,1.37,0,0,0,.74-.4,1.38,1.38,0,0,0,.12-.66V15.26l3,.21v5.15a12.46,12.46,0,0,1-5.89,1.22q-4.55,0-6.95-2.56t-2.39-7.62a13.68,13.68,0,0,1,.8-4.88,7.86,7.86,0,0,1,2.17-3.24,9.63,9.63,0,0,1,6.37-2.23,13,13,0,0,1,5.6,1.22V7.59l-3,.21V5.47A1.36,1.36,0,0,0,62.52,4.82Z"/><path class="cls-2" d="M73.77.24V19l1.7.09v2.38H68.38V19.19l1-.09a.85.85,0,0,0,.86-1V3.48c0-.44-.25-.68-.75-.71l-1-.06V.24Z"/><path class="cls-2" d="M82.7,6.48V19l1.7.09v2.38H77.31V19.19l1-.09a.86.86,0,0,0,.87-1V9.88A1,1,0,0,0,79,9.19.8.8,0,0,0,78.41,9l-1,0V6.48ZM79,3.91a2.09,2.09,0,0,1-.63-1.56A2.17,2.17,0,0,1,80.59.12a2.23,2.23,0,0,1,1.65.64,2.16,2.16,0,0,1,.64,1.59,2.1,2.1,0,0,1-.64,1.56,2.29,2.29,0,0,1-1.65.61A2.23,2.23,0,0,1,79,3.91Z"/><path class="cls-2" d="M93.59,6a5.33,5.33,0,0,1,3.54,1.09,3.75,3.75,0,0,1,1.31,3.05,4.68,4.68,0,0,1-2,3.87,7.32,7.32,0,0,1-2,.91,15.54,15.54,0,0,1-4.49.6,4,4,0,0,0,1,2.55,3.58,3.58,0,0,0,2.74,1,6.3,6.3,0,0,0,3.69-1.31l1.13,2.41a7.08,7.08,0,0,1-2,1.11,8.78,8.78,0,0,1-3.23.56q-3.63,0-5.32-2a8.3,8.3,0,0,1-1.7-5.52,9,9,0,0,1,1.93-5.89A6.59,6.59,0,0,1,93.59,6Zm-1.35,6.8a4.76,4.76,0,0,0,2-.87,1.92,1.92,0,0,0,.93-1.59,1.59,1.59,0,0,0-1.79-1.81,2.91,2.91,0,0,0-2.56,1.32,6.15,6.15,0,0,0-1,3.17A15.83,15.83,0,0,0,92.24,12.84Z"/><path class="cls-2" d="M100.34,8.87V6.48h5V8.42a5.49,5.49,0,0,1,2.06-1.74A6,6,0,0,1,110.19,6a4.61,4.61,0,0,1,3.5,1.29,5.47,5.47,0,0,1,1.24,3.89V19l1.69.09v2.38h-7.08V19.19l1-.09a1.19,1.19,0,0,0,.66-.25,1,1,0,0,0,.21-.73V12a4.52,4.52,0,0,0-.51-2.42A2.11,2.11,0,0,0,109,8.78a2.94,2.94,0,0,0-3.08,3V19l1.7.09v2.38h-7.09V19.19l1-.09a1.18,1.18,0,0,0,.65-.25,1,1,0,0,0,.21-.73V9.88c0-.6-.25-.9-.75-.92Z"/><path class="cls-2" d="M120.49,3.33h1.93V6.48h4L126.08,9h-3.66v7.83a2.71,2.71,0,0,0,.48,1.83,1.9,1.9,0,0,0,1.48.52,3.89,3.89,0,0,0,2-.62l.88,2.29a6.38,6.38,0,0,1-3.77,1,6.83,6.83,0,0,1-2.27-.34,4,4,0,0,1-1.36-.76,2.65,2.65,0,0,1-.69-1.22,6.26,6.26,0,0,1-.27-1.26c0-.31,0-.77,0-1.36V9h-2.12l.3-2.17a2.88,2.88,0,0,0,2.11-1A8.71,8.71,0,0,0,120.49,3.33Z"/><path class="cls-2" d="M136.2,8.75a4.85,4.85,0,0,0-1.72-.27,2.58,2.58,0,0,0-1.62.46,1.36,1.36,0,0,0-.61,1.13,2,2,0,0,0,.22,1,1.83,1.83,0,0,0,.7.64,9.1,9.1,0,0,0,1.78.67c.7.19,1.21.34,1.55.45a9,9,0,0,1,1.27.55,3.82,3.82,0,0,1,1.14.83,4,4,0,0,1,1,2.83,4.2,4.2,0,0,1-1.62,3.5,6.51,6.51,0,0,1-4.12,1.26,12.8,12.8,0,0,1-5.48-.92V16.78l2.68-.21V18c0,.87.84,1.31,2.5,1.31s2.5-.6,2.5-1.81a1.39,1.39,0,0,0-.43-1.07,2.44,2.44,0,0,0-.85-.57c-.27-.1-.61-.2-1-.3l-1.12-.3a10.41,10.41,0,0,1-1.19-.4,8.37,8.37,0,0,1-1.42-.73,3.62,3.62,0,0,1-1.52-3.29,4.21,4.21,0,0,1,1.64-3.55A6.54,6.54,0,0,1,134.64,6a11.2,11.2,0,0,1,4.93,1.19V10.8l-2.68.21V9.76A1,1,0,0,0,136.2,8.75Z"/><path class="cls-2" d="M144.69.81a2.79,2.79,0,1,0,.81,2A2.76,2.76,0,0,0,144.69.81Zm-2,4.28a2.32,2.32,0,1,1,2.32-2.32A2.32,2.32,0,0,1,142.73,5.09Z"/><path class="cls-2" d="M143.36,2.85a.8.8,0,0,0,.54-.77.73.73,0,0,0-.34-.63,1.7,1.7,0,0,0-.94-.23,6.1,6.1,0,0,0-.89.08v3h.44V3h.55c.45,0,.73.44.86,1.33H144a4.08,4.08,0,0,0-.26-1A1,1,0,0,0,143.36,2.85Zm-.66-.2h-.53V1.59l.45,0c.58,0,.86.18.86.54S143.22,2.65,142.7,2.65Z"/></g></g></svg>