<?xml version="1.0" encoding="utf-8"?>
<!-- Generator: Adobe Illustrator 24.1.2, SVG Export Plug-In . SVG Version: 6.00 Build 0)  -->
<svg version="1.1" id="Capa_1" xmlns="http://www.w3.org/2000/svg" xmlns:xlink="http://www.w3.org/1999/xlink" x="0px" y="0px"
	 viewBox="0 0 831.4 208.8" style="enable-background:new 0 0 831.4 208.8;" xml:space="preserve">
<style type="text/css">
	.st0{fill:#F7F7F7;}
	.st1{fill:#FFFFFF;}
</style>
<path class="st0" d="M679,59c0.3-0.4,0.4-0.4,0.4-0.5c1.1-5.6,1.1-5.6,7.2-5.6h119.2c2.1,0,4.5-0.5,6.1,0.4c1.2,0.7,1.4,3.3,2.2,5.5
	c3.1-1.2,6.3-2.4,9.5-3.6s6.1-0.2,7.3,2.8c1.1,2.7,0,5.2-3.2,6.5c-3.6,1.5-7.3,3-11,4.2c-2.5,0.9-3.6,2.3-3.5,5
	c0.1,9-0.1,18,0.1,26.9c0.4,14.8-7,25.5-18.3,33.6c-10.5,7.5-22.6,10.9-35.4,11.6c-15.1,0.8-30.3,0.9-44.9-3.8
	c-10.3-3.3-19.7-7.9-26.6-16.6c-5.4-6.7-8.3-14.2-8.3-22.9c0.1-9.7,0-19.5,0.1-29.2c0-2.2-0.7-3.4-2.7-4.2c-3.9-1.4-7.8-3-11.6-4.6
	c-3.3-1.3-4.5-4-3.3-6.7c1.3-3,3.6-3.9,6.9-2.6L679,59z M787.8,101.7v0.4h6.2c2.2,0,4.4,0.1,6.6,0c4.7-0.2,6.9-2.2,6.6-6.7
	c-0.9-10.2-4.2-19.4-13.3-25.1c-7.3-4.6-15.2-5.2-23.7-3.3c-15.9,3.4-27,22.8-21.3,38.1c3.4,9.6,11.1,16.9,20.9,19.8
	c11.6,3.7,21.8,0.6,30.9-7.1c1.9-1.6,2.3-3.3,0.2-5.3c-1.8-1.6-3.5-3.3-5.1-5.1s-3.3-1.7-5.2-0.6c-2,1.3-4.2,2.3-6.5,3.1
	c-5.9,2-13.4-0.1-16.4-4.4c-0.5-1-0.8-2-1-3c0.9-0.4,1.8-0.6,2.7-0.8C775.5,101.6,781.7,101.7,787.8,101.7L787.8,101.7z M692.4,91.1
	L692.4,91.1c0,10,0,19.9,0,29.9c0,4,0.2,4.2,4.3,4.2c3.4,0,6.8-0.2,10.2,0.1c3.2,0.2,4.4-1,4.3-4.1c-0.2-4.9,0.1-9.8-0.1-14.8
	c-0.1-2.8,0.8-4.1,3.7-3.8c2.4,0.2,4.8,0,7.2,0c16.5-0.1,26.7-12.3,23.5-28.4c-1.9-9.7-9.2-16.6-18.7-16.9
	c-10.3-0.3-20.6-0.1-31-0.1c-2.6,0-3.6,1-3.6,3.8C692.5,71,692.4,81.1,692.4,91.1z"/>
<path class="st0" d="M0,75.9c0-14.5,0-29.1,0-43.7c0-4.6,0.4-5,5.1-5c15.3,0,30.5,0.1,45.8,0c9.6-0.1,16.5,5.1,22.5,11.4
	c14.3,14.8,11.9,33-5.9,45.9c-2.5,1.8-2.6,3.1-1.2,5.5c5.3,9.5,10.4,19,15.5,28.6c0.5,0.9,1,1.7,1.3,2.6c1.3,3.2,0.7,4.3-2.7,4.3
	c-7,0.1-14.1,0-21.1,0c-2.9,0-4.6-1.5-5.9-4c-4.4-8.5-9-17-13.4-25.6c-1.2-2.3-2.6-3.3-5.3-3.3c-7.5,0.2-7.5,0-7.5,7.4
	s-0.1,14.4,0,21.7c0,2.8-1,3.9-3.9,3.8c-6.3-0.2-12.5,0-18.8-0.1c-3.8,0-4.6-0.8-4.6-5C0,105.7,0,90.8,0,75.9z M27.3,59
	c0,3.3,0,6.6,0,9.8c0,1.7,0.6,2.3,2.3,2.3c3.9-0.1,7.9,0.1,11.8,0c7-0.2,12.8-5.7,12.8-12s-5.7-12-12.6-12.3
	c-3.9-0.2-7.9,0-11.8-0.1c-2.1-0.1-2.6,0.9-2.6,2.8C27.3,52.7,27.3,55.9,27.3,59z"/>
<path class="st0" d="M308.5,118.9c-5,4.1-10.2,6.7-16.3,7.3c-11.7,1.2-21-3.2-27.9-12.6c-9.8-13.5-8.5-33.7,2.8-45.4
	c11.9-12.3,29.6-12.7,42-0.8c0.5,0.6,1,1.3,1.5,2c1.2-2.8,2-4.9,3-7c0.8-2.1,2.9-3.5,5.2-3.2c2.3,0.1,4.6,0,6.9,0
	c2.9,0,4.6,1.5,4.6,4.4c0,19.5,0,39,0,58.4c0,3.6-1.3,4.6-4.9,4.7c-0.9,0-1.8-0.1-2.6,0C316.3,127.5,310.9,126.1,308.5,118.9z
	 M292.8,108.8c9-0.1,16.1-7.5,16-16.4c-0.1-9-7.5-16.1-16.4-16c-8.9,0.1-16,7.4-16,16.2C276.4,101.5,283.7,108.8,292.8,108.8
	L292.8,108.8z"/>
<path class="st0" d="M515.4,119c-4.9,4.1-10.3,6.8-16.5,7.3c-13.5,1.1-23.3-4.9-29.8-16.5c-7.7-14.1-5.1-31.7,6.4-42.9
	c11.1-10.8,28.7-10.9,39.9-0.3c0.8,0.7,1.5,1.4,2.3,2.1c0.4-0.3,0.7-0.4,0.7-0.6c3.6-9.1,3.6-9.1,13.5-9c3.1,0,4.8,1.4,4.9,4.5
	c0,1.2,0.1,2.4,0.1,3.6c0,16.6,0,33.3,0,49.9c0,0.9,0,1.8,0,2.6c-0.1,6.7-0.5,7.1-7.1,7.1c-1.3,0-2.6-0.1-4,0
	c-4,0.3-6.8-1.4-8.7-4.8C516.8,121.1,516.1,120.2,515.4,119z M500,76.3c-9,0-16.3,7.2-16.3,16.2c0,9,7.2,16.3,16.2,16.3
	c9,0,16.3-7.2,16.3-16.2c0,0,0-0.1,0-0.1C516.1,83.5,508.9,76.4,500,76.3z"/>
<path class="st0" d="M385,116.8c-1.7,1.7-3.5,3.3-5.4,4.8c-8.3,6-17.2,6.3-26.1,2c-9.2-4.5-14.5-12.1-14.9-22.3
	c-0.4-11.8-0.1-23.6-0.1-35.5c0-5.1,1.7-6.6,6.8-6.7c2.5,0,5,0,7.6,0c5.1,0,6,0.9,6,5.9c0.1,10.4-0.1,20.8,0.3,31.2
	c0.2,2.8,1.2,5.5,2.9,7.7c2.7,3.4,6.5,5.1,11.1,3.4c5.5-2.1,9.7-7.2,9.7-12.5c0-9.4-0.2-18.8-0.4-28.2c-0.1-6.4,0.7-7.4,7.3-7.4
	c3,0,5.9,0,8.9,0c3.8,0,4.6,0.8,4.6,4.7c0,10.1,0,20.1,0,30.2c0,8.1,0,16.2,0,24.3c0,4.8-2.2,7-7,7.2
	C389.3,126,387.5,124.6,385,116.8z"/>
<path class="st0" d="M562.8,68.5c3.5-2.4,6.6-5.4,10.3-7c16.5-7.2,35.8,5.5,36.1,23.6c0.2,11.5,0.1,23,0,34.5c0,5.8-1.5,7.1-7.3,7.1
	h-1.7c-11.3,0-11.3,0.9-11.2-11c0.1-8.4,0-16.9,0-25.3c0.2-4.4-2-8.5-5.8-10.7c-7.4-4.6-18,2.2-18.2,11.7
	c-0.1,7.5,0.2,15.1,0.3,22.6c0,2.7,0.1,5.5,0,8.2s-1.6,4.3-4.3,4.4c-4.3,0.1-8.6,0.1-12.8,0c-2.4,0-3.6-1.3-3.7-3.6
	c0-0.6,0-1.1,0-1.6c0-17.8,0-35.7,0-53.5c0-5,2.1-7.3,7-7.5C558.6,60,560.3,61.3,562.8,68.5z"/>
<path class="st0" d="M103.9,98.6c1,6,6.7,10.8,13.5,11.5c5.4,0.6,10.9-0.9,15.2-4.2c2.6-1.9,4.5-2.1,6.6,0.7c1.5,1.9,3.2,3.7,5,5.2
	c2,1.9,1.8,3.4-0.1,5.1c-7.7,6.7-16.7,10-26.9,9.3c-18.4-1.2-33-16.4-33-34.2c0-16.7,13.7-31.7,30.4-33.3
	c24.6-2.3,34.9,14.3,36.7,31.4c0.7,6.6-1.3,8.6-7.9,8.5c-12.2-0.1-24.4-0.3-36.6-0.4C105.8,98.3,104.9,98.5,103.9,98.6z M131.4,84.1
	c-1.3-5.9-7.3-10.2-13.5-9.9s-11.7,4.5-12.7,9.9H131.4z"/>
<path class="st0" d="M811.8,47.2h-131c2.6-2.2,4.6-4,6.6-5.6c13.7-10.9,29.5-17.1,46.7-19.6c2.9-0.4,3.5-1.4,2.6-4s-1.8-5.6-2.6-8.4
	s-0.2-5.3,2.7-6.9c6.2-3.5,12.6-3.3,19-0.8c3.8,1.5,4.8,4.3,3.7,8.7c-0.7,2.8-1.5,5.5-2.4,8.2c-0.7,2.3-0.1,3,2.3,3.4
	c17.4,2.2,33.8,9.1,47.5,20c1.8,1.4,3.5,3,5.2,4.4L811.8,47.2z"/>
<path class="st0" d="M196.8,79.7c-1.4-1.1-2.6-2.2-3.9-3.2c-2.9-2.3-6.3-3.5-9.8-2.2c-1.5,0.6-2.7,1.9-3.3,3.4
	c-0.2,0.8,1.7,2.7,2.9,3.2c3.4,1.4,7.1,2.1,10.6,3.4c2.5,0.9,4.8,2,7.2,3.3c13.1,6.6,13.1,24.3,2.4,32.8
	c-11.9,9.4-33.6,7.8-43.8-3.5c-2.8-3.1-2.8-3.8,0.1-6.8c1.8-1.9,3.5-3.9,5.4-5.8c1.5-1.6,2.8-1.5,4.7-0.1c2.9,2.1,6.1,3.8,9.4,5.1
	c1.6,0.5,3.2,0.7,4.9,0.4c2.7-0.3,5.9-0.7,6.3-4.1c0.4-3.2-2.6-4-4.9-5c-3.6-1.4-7.3-2.5-10.9-3.7c-9.7-3.4-15-11.1-14.4-20.7
	c0.5-6.7,3.5-12.2,9.7-14.9c11.6-5.1,23.1-4.8,33.7,2.8c5.5,4,5.4,5,0.3,9.5L196.8,79.7z"/>
<path class="st0" d="M644.5,62.4c3.1,0,6.1,0,9.2,0c2.4,0,3.7,1,3.6,3.6c-0.1,2.8-0.1,5.7,0,8.5c0.1,3-1.4,4.1-4.2,4.1
	c-2,0-4,0.2-5.9,0c-2.5-0.2-3.1,0.9-3.1,3.2c0.1,13.2-0.1,26.5,0.1,39.7c0,3.3-0.9,4.4-4.3,4.2c-4.3-0.3-8.6-0.3-12.8,0
	c-3.2,0.2-3.8-1-3.8-3.9c0.1-13,0-26,0.1-39c0-3-0.5-4.6-3.9-4.2c-2.9,0.3-4.2-1.2-4-4.1c0.1-2.7,0.1-5.5,0-8.2s1.2-4.2,3.9-3.8
	c3.2,0.4,4.5-0.9,3.9-4c-1.6-7.9,1.5-12.6,9.4-14.4c2-0.5,3.8-1.7,5.7-2.4c4-1.5,5.6-0.3,5.6,3.8c0.1,5.3,0.1,10.5,0.1,15.7
	C644.3,61.6,644.4,62,644.5,62.4z"/>
<path class="st0" d="M222.8,125.6v-12.3c0-10.4-0.1-20.8,0-31.2c0-2.7-0.7-3.9-3.5-3.5c-3.2,0.4-4.6-1-4.4-4.4
	c0.2-2.6,0.2-5.3,0-7.9c-0.2-3,1.1-4.2,4-4c1.3,0,2.5,0,3.8-0.2c0-3.7,0.1-7.3-0.1-10.8c-0.3-2,1-3.9,2.9-4.5
	c4-1.6,7.8-3.5,11.7-5.2c4.1-1.8,6-0.5,6.1,3.9s0.1,9,0,13.5c-0.1,2.4,0.5,3.5,3.3,3.5c8.9,0,8.9,0.1,8.9,9.2c0,7,0,7-6.9,7h-0.3
	c-4.9,0-4.9,0-4.9,5V121c0.1,0.9,0.1,1.7-0.1,2.6c-0.4,0.8-1.3,1.8-2,1.8C235.4,125.7,229.4,125.6,222.8,125.6z"/>
<path class="st0" d="M431.5,67.8c3.8-6.3,9.2-10,16.8-9.5c6.3,0.4,11.5,3.2,16.2,7.3c1.7,1.5,2.1,3.3,0.7,5.2
	c-1.7,2.5-3.4,5.1-5.1,7.6c-2.1,3-4.6,3.5-7.1,0.8c-5.1-5.2-12.5-5.2-17.8,1.8c-1.1,1.4-1.7,3.2-1.8,5c-0.2,11.3-0.1,22.5-0.1,33.8
	c0,3.9-0.6,4.5-4.6,4.6s-8.1-0.1-12.2,0c-2.7,0.1-4-0.9-4-3.8c0.1-18.7,0-37.4,0.1-56.1c0-3.7,1.2-4.9,4.8-5.2c0.1,0,0.2,0,0.3,0
	c6.1-0.9,10.8,0.6,12.5,7.3c0.1,0.3,0.3,0.6,0.5,0.8C430.8,67.6,431,67.6,431.5,67.8z"/>
<path class="st1" d="M671.7,118.3c0.1,3.9-3,7.2-6.9,7.3c-3.9,0.1-7.2-3-7.3-6.9c0-0.2,0-0.3,0-0.5c0.2-3.9,3.5-6.9,7.4-6.8
	C668.7,111.6,671.6,114.6,671.7,118.3z"/>
<path class="st0" d="M787.5,87.8H768c0.7-3.2,4.5-6.8,7.8-7.2C780.7,79.9,784.6,82.1,787.5,87.8z"/>
<path class="st0" d="M717.5,72.7c6.6,0,9.7,2.2,9.8,7c0.1,4.9-3,7.2-9.9,7.1c-7,0-6.3,0.9-6.3-6.3v-1.3
	C711.2,71.6,710.4,72.8,717.5,72.7z"/>
<path class="st0" d="M53,182l8.2,25.3H49.5l-1.9-6L42,184.8h-0.7l0.3,22.5l-10.6-0.2c-0.3-37.1-0.5-56.8-0.6-59.1
	c1.9-0.2,3.9-0.4,6.1-0.6c1.2-0.1,2.5-0.1,3.8-0.1c1,0,2.1,0,3.1,0.1h0.4c5.1,0,8.6,1,10.6,3c2,2,3,4.8,3,8.4
	c-0.1,9.4-0.1,14.7-0.1,15.9c0,1.2-0.3,2.3-0.8,3.4c-0.5,1-1.1,1.9-1.8,2.7C54.3,181.3,53.7,181.7,53,182z M41.6,156.7l-0.3,15.9
	l0.4,0.1c0.5,0.1,1,0.2,1.5,0.3c0.2,0,0.3,0,0.5,0c0.3,0,0.6-0.1,0.9-0.2c0.7-0.4,1.2-1,1.5-1.7c0.3-0.7,0.4-1.4,0.5-2.2v-0.1
	l0.1-7.2c0-0.8-0.1-1.5-0.2-2.3c-0.2-0.8-0.6-1.4-1.3-1.9c-0.3-0.2-0.6-0.4-0.9-0.5c-0.6-0.2-1.3-0.3-2-0.3
	C42,156.6,41.8,156.6,41.6,156.7z"/>
<path class="st0" d="M62.1,171.3l0.1-12.7c0.2-1.9,0.8-3.8,1.7-5.5c0.9-1.7,2.3-3.1,4-4c1.7-0.8,3.5-1.3,5.4-1.5
	c1-0.1,1.9-0.1,2.9-0.1c0.9,0,1.9,0,2.8,0.1c2.9,0,5.7,1.3,7.5,3.5c1.1,1.5,2,3.2,2.5,5c0.5,1.8,0.8,3.6,0.9,5.5
	c0.1,1.9,0.1,3.9,0.1,6c0,3.9-0.1,8.2-0.3,13c-0.2,5.2-0.3,9.2-0.3,12.2c0,1.3,0,2.4,0,3.3c0,0.3,0,0.6,0,0.9c0,3.1-1.1,6-3.3,8.3
	c-2.6,2.4-6,3.7-9.6,3.6l-3.4-0.1c-2.1,0-4.5-1.3-7.2-3.7c-1.9-2.1-3-4.7-3.2-7.5C62.5,194.5,62.3,185.8,62.1,171.3z M72.9,163.3
	c-0.1,1.7-0.1,11.5-0.1,29.3v0.3c0,1,0.2,2,0.5,2.9c0.3,1,1.2,1.8,2.2,2.1c0.2,0,0.3,0,0.5,0c0.6,0,1.2-0.2,1.7-0.5
	c0.6-0.4,1-0.9,1.3-1.6c0.5-1.2,0.7-2.5,0.7-3.8v-0.5c0.3-11.3,0.4-19.4,0.4-24.3c0-2,0-4.1-0.3-6.1c-0.2-1.1-1-2-2.6-2.6
	c-0.4-0.1-0.8-0.2-1.3-0.2c-0.9,0-1.7,0.5-2.1,1.3C73.2,160.8,72.9,162.1,72.9,163.3L72.9,163.3z"/>
<path class="st0" d="M139.1,196.8c0,2.6-0.9,5.1-2.4,7.2c-1.6,2.1-4,3.5-6.6,3.9c-1.1,0.2-2.2,0.3-3.3,0.3c-1.2,0-2.5-0.1-3.7-0.3
	c-2.6-0.4-4.9-1.7-6.6-3.7c-0.9,1.5-2.4,2.7-4.1,3.4c-1.7,0.7-3.5,1-5.3,1h-0.2c-3.9-0.1-6.8-0.9-8.8-2.5c-2-1.6-3.4-3.8-3.9-6.3
	c-0.6-2.8-1-5.7-0.9-8.5v-20c0-4.8,0-9.3,0-13.5v-9.4l10.6,0.4v7.1c0,3.1,0,6.5,0,10.1c0,3.6,0,8.1,0,13.4s0,9.3,0,12
	c0,0.2,0,0.5,0,0.8c0,1.1,0.2,2.3,0.6,3.3c0.3,0.7,0.7,1.3,1.2,1.8c0.5,0.5,1.2,0.8,1.9,0.7c1.6,0,2.6-0.5,3-1.4
	c0.4-0.9,0.6-1.8,0.6-2.7v-0.2c0-0.2,0-0.4,0-0.6c0-0.1,0-0.4,0-0.9s0-1,0-1.6s0-1.5,0-2.8s0-4.2,0-8.7s0-9,0-13.5
	s-0.1-9.8-0.2-15.9l0,0l10.9,0.3c-0.2,14.9-0.3,24.5-0.3,28.9s0,7.4,0,8.9c0,1.5,0,2.5,0.1,3s0,0.9,0,1.3s0,0.6,0,0.7v0.2
	c-0.1,1.2,0.2,2.4,0.8,3.5c0.6,0.9,1.5,1.3,2.6,1.3h0.2c0.7-0.1,1.4-0.4,1.9-0.8c0.5-0.5,1-1.1,1.2-1.7c0.4-1.1,0.6-2.2,0.6-3.4
	c0-0.2,0-0.5,0-0.7l-0.1-8.2c0-1.6-0.1-4-0.1-7.1s0-6.4,0-10s-0.1-6.9-0.1-10s0-5.4-0.1-7l10.6-0.3c0.1,2,0.1,4.7,0.1,8.2
	s0,7.3,0,11.4L139.1,196.8z"/>
<path class="st0" d="M170,195.9c0,0.3,0,0.7,0,1c0,3-1.1,6-3.2,8.2c-2.6,2.4-6.1,3.7-9.7,3.6l-3.4-0.1c-2.1,0-4.5-1.3-7.2-3.7
	c-1.9-2.1-3-4.7-3.2-7.5c-0.2-1.5-0.4-6.4-0.6-14.5c-0.3-8.1-0.4-13.7-0.4-16.6v-1.5c0-2.1,0.1-4.3,0.4-6.4c0.2-1.9,0.8-3.8,1.7-5.5
	c0.9-1.7,2.3-3.1,4-4c1.7-0.8,3.5-1.4,5.4-1.5c1-0.1,1.9-0.1,2.8-0.1s1.9,0.1,2.8,0.1c2.9,0,5.7,1.3,7.6,3.5c1.1,1.5,1.9,3.2,2.4,5
	c0.5,1.8,0.8,3.6,0.9,5.5c0,0.9,0,4.3,0,10.1s0,9,0,9.4c-5.1,0.1-10.8,0.1-17,0.2v11.4c0,1.1,0.1,2.1,0.5,3.1c0.4,1,1.2,1.8,2.2,2.1
	c0.2,0,0.3,0,0.5,0c0.6,0,1.1-0.2,1.6-0.5c0.6-0.4,1.1-0.9,1.4-1.6c0.5-1.3,0.8-3.9,0.8-7.9v-0.7l9.7-0.1v4
	C170,193.3,170,194.9,170,195.9z M153.4,163.2c0,0.5-0.1,1.5-0.1,3s0,3.5,0.1,6v0.5l8.3-0.1c0.1-2,0.1-3.8,0.1-5.3
	c0-1.9-0.1-3.7-0.4-5.6c-0.3-1.6-1.5-2.9-3.1-3.3c-0.5-0.1-1-0.2-1.4-0.2c-1,0-1.9,0.5-2.4,1.3C153.8,160.6,153.4,161.9,153.4,163.2
	L153.4,163.2z"/>
<path class="st0" d="M175.3,204.4h0.3v0.8l0,0v1.4h-2.2v-2.2L175.3,204.4z"/>
<path class="st0" d="M188.1,194.2c0,0.6,0,1.1,0,1.7c0,0.4,0,0.7,0,1.1v4.4c0,1,0,2.8,0,5.2h-2.8l0.1-4.4c0-0.9,0-2.1,0-3.4
	s0-2.3,0-3c0-0.1,0-0.1,0-0.2c0-0.3,0-0.6-0.1-0.9c-0.1-0.2-0.2-0.3-0.3-0.4c-0.1-0.1-0.3-0.2-0.5-0.2h-0.1c-0.3,0-0.5,0.1-0.6,0.3
	c-0.2,0.3-0.2,0.6-0.2,0.9v0.1c0,0.1,0,0.1,0,0.2c0,0.1,0,0.2,0,0.3s0,0.9,0,2.4v0.6c0,1.6,0,4.1,0.1,7.5h-0.2c-0.1,0-0.3,0-0.4,0
	h-2.2c0-3.9,0.1-6.6,0.1-8.1v-2.4c0-0.1,0-0.3,0-0.4s0-0.2,0-0.2c0-0.1,0-0.1,0-0.2V195c0-0.2-0.1-0.5-0.1-0.7
	c-0.1-0.2-0.4-0.4-0.8-0.4c-0.2,0-0.4,0.1-0.5,0.2c-0.1,0.1-0.2,0.3-0.3,0.4c-0.1,0.3-0.1,0.6-0.1,0.9c0,0.1,0,0.1,0,0.2
	c0,0.7,0,1.7,0,3v7.8l-2.7,0.1c0-2.7,0-4.6,0-5.8v-5.1c0-0.7,0.1-1.5,0.2-2.2c0.1-0.6,0.5-1.2,1-1.6c0.7-0.4,1.4-0.7,2.2-0.6h0.1
	c0.5,0,0.9,0.1,1.4,0.3c0.4,0.2,0.8,0.5,1,0.9c0.4-0.5,1-0.8,1.7-0.9c0.3,0,0.6-0.1,0.9-0.1c0.3,0,0.6,0,0.9,0.1
	c0.7,0.1,1.3,0.5,1.7,1C187.8,192.9,188,193.5,188.1,194.2z"/>
<path class="st0" d="M197.1,206.6h-3l-1.1-3.7l-0.9,3.6h-2.9l2.1-7.5l-2.3-7.6l3.2,0.1l0.9,4l1.1-4.1l2.9,0.1l-2.4,7.4L197.1,206.6z
	"/>
<path class="st0" d="M1.3,172.1c0-0.5,0-3.2-0.1-8C1.2,159.3,1.1,154,1,148.3h0.3l2.1-0.3c0.6,0,1.1-0.1,1.7-0.1h1
	c0.9,0,1.7,0.2,2.5,0.5c0.8,0.4,1.5,1.1,1.9,1.9c0.3,0.8,0.6,1.6,0.6,2.4c0,0.3,0,0.6,0,0.9c0,0.6,0,1.1-0.1,1.7
	c-0.1,0.6-0.3,1.3-0.5,1.9c-0.2,0.6-0.6,1.1-1.1,1.4c0.9,0.2,1.6,0.7,2.1,1.4c0.6,1,0.9,2.2,0.9,3.3l0,0c0,0.1,0,0.5,0.1,1.2v0.4
	c0,0.6,0,1.3-0.1,2c-0.1,0.9-0.3,1.9-0.7,2.8c-0.4,0.9-0.9,1.6-1.6,2.3c-0.7,0.6-1.6,1-2.6,1.1c-0.5,0.1-1.1,0.1-1.6,0.1
	c-0.7,0-1.7,0-2.9-0.2l-1.9-0.2L1.3,172.1z M8.3,166.9c0-0.1,0-0.3,0-0.4c0-0.2,0-0.8,0-1.8c0-0.7-0.1-1.3-0.1-2
	c-0.1-0.6-0.3-1.1-0.7-1.5c-0.3-0.2-0.6-0.4-1-0.4c-0.2,0-0.4,0-0.6,0c-0.2,0-0.4,0-0.6,0c-0.1,1-0.1,2.1-0.1,3.5c0,0.2,0,0.7,0,1.6
	s0,1.9,0.1,2.9l0.2,0.1c0.3,0.1,0.7,0.2,1.1,0.2H7c0.2,0,0.5-0.2,0.8-0.6C8.2,168,8.4,167.4,8.3,166.9L8.3,166.9z M6.6,152
	c-0.3-0.1-0.6-0.1-0.9-0.1c-0.2,0-0.4,0-0.5,0.1c0,0.3,0,0.8,0,1.5c0,1,0,2.3,0,4.1h0.4c0.3,0,0.6,0,0.8-0.1
	c0.4-0.1,0.7-0.4,0.8-0.7c0.3-0.5,0.4-1.1,0.4-1.7c0-0.2,0-0.4,0-0.5c0-0.4-0.1-0.8-0.2-1.2c-0.1-0.4-0.2-0.7-0.5-1
	C6.9,152.1,6.8,152,6.6,152z"/>
<path class="st0" d="M14.4,171.6l-0.1-4.5l0.5,0.2c0.3,0.1,0.8,0.4,1.7,0.7c0.8,0.3,1.7,0.5,2.6,0.5h0.1c0.3,0,0.7-0.1,1-0.1
	c0.4-0.1,0.7-0.3,0.9-0.6c0.3-0.4,0.4-0.9,0.4-1.3c0-0.1,0-0.6-0.1-1.5c-0.8,0.6-1.8,0.9-2.8,0.9h-0.2c-0.9,0-1.9-0.2-2.7-0.6
	c-0.4-0.2-0.8-0.4-1.1-0.8c-0.5-0.6-0.8-1.3-0.9-2.1c-0.1-0.6-0.1-2.2-0.1-4.8s-0.1-4.7-0.1-6.3c0-1.3-0.1-2.2-0.1-2.7h4.8l0.1,6.3
	v0.8c0,1.6,0,3.2,0.1,4.7c0,0.4,0.1,0.9,0.2,1.3c0.2,0.4,0.5,0.8,1,0.9h0.2c0.3,0,0.5-0.1,0.7-0.2c0.2-0.2,0.4-0.4,0.5-0.7
	c0.2-0.5,0.3-1,0.3-1.5c0-0.1,0-0.2,0-0.3c0-1.3,0-2.7,0-4v-7.3h4.2c0,1.2,0,2.8,0,4.9v4c0,2.3,0,4,0.1,5.2s0.1,2.4,0.1,3.6v0.9
	c0,1.2-0.3,2.5-0.8,3.6c-0.5,0.8-1.2,1.5-2,1.9c-0.8,0.4-1.6,0.6-2.5,0.6c-1,0-2-0.1-3-0.3C16.3,172.6,15.3,172.2,14.4,171.6z"/>
</svg>
