<svg id="Capa_1" data-name="Capa 1" xmlns="http://www.w3.org/2000/svg" viewBox="0 0 831.4 208.8"><defs><style>.cls-1{fill:#ff7a00;}.cls-2{fill:#393939;}</style></defs><g id="Capa_2" data-name="Capa 2"><g id="Capa_1-2" data-name="Capa 1-2"><g id="_5" data-name=" 5"><g id="Logo_de_R.PE" data-name="Logo de R.PE"><path class="cls-1" d="M679.05,59c.24-.36.36-.36.36-.6,1.08-5.63,1.08-5.63,7.2-5.63H805.93c2,0,4.56-.6,6.12.36,1.08.72,1.32,3.23,2.28,5.51,3-1.08,6.23-2.52,9.47-3.59,3.24-1.32,6.12-.24,7.2,2.87,1.07,2.64,0,5.16-3.24,6.48-3.6,1.56-7.44,3-11,4.2-2.51,1-3.59,2.28-3.59,4.91.24,9.12-.24,18,0,26.87.36,14.75-7,25.54-18.35,33.69-10.43,7.56-22.55,11-35.38,11.52-15.11.72-30.34,1-44.85-3.84-10.19-3.24-19.67-7.92-26.74-16.67-5.28-6.84-8.28-14.15-8.28-22.91V73c0-2.27-.6-3.35-2.63-4.19-4-1.32-7.8-3-11.52-4.56-3.23-1.32-4.55-4-3.23-6.84s3.59-3.83,7-2.63Zm108.89,42.81v.36h12.83c4.68-.24,7-2.27,6.6-6.83-1-10.19-4.2-19.31-13.31-25.18-7.2-4.56-15.11-5.16-23.63-3.36-15.94,3.36-27.1,22.9-21.22,38a31.45,31.45,0,0,0,20.87,19.91c11.51,3.6,21.82.6,30.81-7,1.92-1.67,2.28-3.35.24-5.27L796,107.29c-1.68-1.68-3.24-1.68-5.28-.6a26.25,26.25,0,0,1-6.47,3c-5.88,2-13.44,0-16.43-4.32a20.55,20.55,0,0,1-1-3,10.86,10.86,0,0,1,2.64-.72c6.11.12,12.35.12,18.46.12ZM692.49,91.1h0V121c0,4,.24,4.2,4.31,4.2,3.36,0,6.84-.24,10.2,0s4.31-1,4.31-4.2c-.24-4.91,0-9.83,0-14.75,0-2.88.72-4.2,3.84-3.84,2.52.24,4.68,0,7.2,0,16.43,0,26.74-12.35,23.5-28.42-1.92-9.71-9.23-16.67-18.71-16.91-10.19-.36-20.62,0-31.06-.24-2.64,0-3.59,1.08-3.59,3.84Z"/><path class="cls-2" d="M-.06,76V32.22c0-4.68.36-4.92,5.15-4.92,15.35,0,30.46.24,45.81,0,9.72-.24,16.43,5.16,22.55,11.4,14.39,14.75,11.87,33-5.88,46.05-2.51,1.67-2.63,3-1.08,5.51C71.77,99.74,76.93,109.21,82,118.8c.36,1,1,1.68,1.32,2.64,1.32,3.24.72,4.32-2.64,4.32-7,.24-14,0-21,0-2.88,0-4.56-1.56-5.88-4-4.31-8.51-9.11-17-13.43-25.54A5,5,0,0,0,35.07,93c-7.55.24-7.55,0-7.55,7.44V122c0,2.88-1,4-4,3.84-6.23-.24-12.47,0-18.71,0C1,125.88.3,125.16.3,121-.06,105.73-.06,90.74-.06,76ZM27.16,59V68.8c0,1.68.6,2.27,2.28,2.27H41.31c7-.23,12.83-5.63,12.83-11.87S48.51,47.33,41.67,46.85c-4-.24-7.91,0-11.87,0-2,0-2.64,1-2.64,2.88Z"/><path class="cls-2" d="M308.5,118.92a29.07,29.07,0,0,1-16.31,7.44c-11.76,1.08-21-3.24-27.83-12.71-9.83-13.43-8.51-33.7,2.88-45.45,11.88-12.36,29.5-12.71,42-.72.6.6,1,1.32,1.55,2,1.08-2.88,2-4.92,3-7a5.16,5.16,0,0,1,5.16-3.24,67.13,67.13,0,0,0,6.95,0c2.88,0,4.56,1.56,4.56,4.32v58.52c0,3.6-1.32,4.56-4.92,4.68h-2.63C316.29,127.44,310.77,126.12,308.5,118.92Zm-15.83-10.19a16.25,16.25,0,1,0-16.43-16.19A16.54,16.54,0,0,0,292.67,108.73Z"/><path class="cls-2" d="M515.48,118.92c-4.92,4.2-10.19,6.84-16.43,7.2-13.67,1.08-23.26-4.92-29.74-16.43a35.67,35.67,0,0,1,6.48-42.93,28.77,28.77,0,0,1,39.93-.36c.72.72,1.56,1.32,2.28,2,.36-.36.72-.36.72-.6,3.6-9.12,3.6-9.12,13.43-9.12,3,0,4.68,1.32,4.92,4.56v56.24c-.24,6.6-.6,7-7.2,7h-4a9.11,9.11,0,0,1-8.75-4.68C516.8,121.08,516.2,120.24,515.48,118.92ZM500,76.35a16.19,16.19,0,1,0,16.07,16.31v-.24A16.07,16.07,0,0,0,500,76.35Z"/><path class="cls-2" d="M385,116.89a49.8,49.8,0,0,1-5.28,4.67c-8.27,6.12-17.27,6.24-26.14,2-9.12-4.56-14.63-12.11-15-22.3-.36-11.76-.24-23.63,0-35.38,0-5.16,1.68-6.6,6.83-6.6H353c5.15,0,6.11,1,6.11,5.88,0,10.43,0,20.87.36,31.3a12.81,12.81,0,0,0,2.88,7.55c2.64,3.36,6.48,5.16,11.15,3.36,5.52-2,9.72-7.19,9.72-12.47,0-9.47-.24-18.71-.36-28.18-.24-6.48.72-7.44,7.19-7.44h8.88c3.83,0,4.55.72,4.55,4.68v54.56c0,4.68-2.27,7-7,7.2C389.44,126,387.52,124.68,385,116.89Z"/><path class="cls-2" d="M562.85,68.56c3.36-2.52,6.6-5.28,10.43-7,16.43-7.19,35.74,5.52,36.22,23.63.24,11.51,0,23.14,0,34.41,0,5.64-1.56,7-7.44,7.2h-1.67c-11.4,0-11.4,1-11.16-11V90.38a12,12,0,0,0-5.63-10.79c-7.44-4.56-18,2-18.23,11.75-.24,7.56.24,15.11.24,22.67,0,2.64.24,5.51,0,8.15a4,4,0,0,1-3.59,4.32,4.45,4.45,0,0,1-.73,0c-4.32.24-8.51,0-12.83,0-2.52,0-3.6-1.32-3.84-3.6V67.6c0-5.16,2-7.2,7-7.56C558.65,60,560.33,61.24,562.85,68.56Z"/><path class="cls-2" d="M103.67,98.54c1,6.11,6.6,10.79,13.67,11.51a21.11,21.11,0,0,0,15.11-4.2c2.52-1.92,4.56-2,6.6.72a66.26,66.26,0,0,0,4.91,5.28c2,1.92,1.92,3.36-.24,5.15-7.79,6.6-16.67,10.08-26.86,9.24-18.35-1.08-33-16.43-33-34.3,0-16.67,13.67-31.78,30.46-33.34C138.93,56.32,149.24,73,151,90c.72,6.6-1.32,8.52-7.92,8.52-12.11,0-24.46-.24-36.57-.36A17.44,17.44,0,0,1,103.67,98.54Zm27.7-14.39c-1.32-5.88-7.43-10.2-13.43-10.08-6.24.24-11.75,4.56-12.71,10.08Z"/><path class="cls-1" d="M811.93,47.21H681c2.64-2.28,4.56-4,6.6-5.64A97.08,97.08,0,0,1,734.34,22c2.88-.36,3.6-1.32,2.64-4a84.55,84.55,0,0,1-2.64-8.51c-.72-2.88-.24-5.28,2.64-7,6.23-3.6,12.71-3.36,18.94-.72,3.84,1.56,4.68,4.32,3.6,8.75-.72,2.88-1.56,5.52-2.28,8.16-.72,2.28,0,3,2.28,3.36a93.45,93.45,0,0,1,47.49,20c1.68,1.32,3.36,3,5.28,4.32Z"/><path class="cls-2" d="M196.85,79.71c-1.32-1.08-2.64-2-4-3.24a10.55,10.55,0,0,0-9.83-2.28,6,6,0,0,0-3.24,3.36c-.24.72,1.68,2.64,3,3.24,3.36,1.32,7.19,2,10.55,3.36a65.38,65.38,0,0,1,7.2,3.23c13.07,6.6,13.07,24.23,2.51,32.74-11.87,9.48-33.45,7.8-43.77-3.35-2.87-3-2.87-3.84,0-6.84,1.92-1.92,3.6-4,5.28-5.64s2.88-1.56,4.68,0a45.06,45.06,0,0,0,9.47,5.16,9.78,9.78,0,0,0,4.92.36c2.64-.36,5.87-.72,6.23-4.2.36-3.24-2.63-4-4.91-4.91-3.6-1.32-7.2-2.52-11-3.84-9.71-3.36-15-11.15-14.39-20.63.36-6.83,3.36-12.11,9.72-15,11.51-5.16,23.14-4.68,33.7,2.88,5.51,4,5.27,4.92.35,9.47Z"/><path class="cls-2" d="M644.64,62.32h9.23c2.52,0,3.6,1,3.6,3.6,0,2.88-.24,5.63,0,8.51s-1.32,4.2-4.2,4.2a47.9,47.9,0,0,1-5.87,0c-2.52-.24-3.24,1-3,3.24,0,13.31,0,26.5.24,39.81,0,3.36-1,4.32-4.2,4.2a76.34,76.34,0,0,0-12.83,0c-3.24.24-3.84-1-3.84-4,.24-13.07,0-25.9.24-39,0-3-.36-4.56-4-4.2-2.88.36-4.19-1.08-3.95-4.2a46.22,46.22,0,0,0,0-8.15c-.24-2.64,1.07-4.2,3.95-3.84q4.8.54,4-4c-1.56-7.91,1.56-12.47,9.23-14.39,2-.36,3.84-1.68,5.64-2.52,4-1.55,5.64-.36,5.64,3.84V61.24A1.18,1.18,0,0,0,644.64,62.32Z"/><path class="cls-2" d="M222.75,125.64V82c0-2.64-.6-3.84-3.36-3.6-3.23.36-4.67-1-4.31-4.32a43.54,43.54,0,0,0,0-7.91c-.24-3,1.08-4.2,3.95-4a20.54,20.54,0,0,0,3.84-.24c0-3.84.24-7.19,0-10.79a4.22,4.22,0,0,1,2.88-4.56c4-1.68,7.8-3.6,11.75-5.16,4.2-1.67,6.12-.6,6.12,3.84s.24,9.12,0,13.43c0,2.52.6,3.36,3.24,3.36,8.87,0,8.87.24,8.87,9.11,0,7,0,7-6.95,7h-.6c-4.92,0-4.92,0-4.92,4.92V120.6a4.93,4.93,0,0,1,0,2.64c-.36.72-1.32,1.92-2,1.92C235.22,125.64,229.35,125.64,222.75,125.64Z"/><path class="cls-2" d="M431.66,67.84c3.83-6.24,9.23-10.08,16.9-9.48,6.24.36,11.52,3.24,16.07,7.44a3.68,3.68,0,0,1,.83,5.14l-.11.13c-1.68,2.52-3.35,5.16-5.15,7.56-2,3-4.56,3.36-7.2.72-5.15-5.28-12.47-5.28-17.75,1.92a8.78,8.78,0,0,0-1.68,4.92c-.24,11.15,0,22.54-.24,33.93,0,4-.59,4.56-4.55,4.56H416.67c-2.64,0-4-1-4-3.84v-56c0-3.84,1.08-4.92,4.68-5.16h.35c6.12-1,10.8.6,12.48,7.2.24.36.24.6.6.72A2.52,2.52,0,0,1,431.66,67.84Z"/><path class="cls-2" d="M671.86,118.44a7.08,7.08,0,1,1-14.15.24v-.6a7.28,7.28,0,0,1,7.43-6.83A7.38,7.38,0,0,1,671.86,118.44Z"/><path class="cls-1" d="M787.58,87.74H768c.72-3.23,4.55-6.83,7.79-7.19C780.75,80,784.71,82.23,787.58,87.74Z"/><path class="cls-1" d="M717.67,72.75c6.59,0,9.71,2.28,9.83,7,0,4.92-3,7.19-9.83,7.19s-6.24,1-6.24-6.23V79.35C711.31,71.67,710.47,72.75,717.67,72.75Z"/></g><g id="Nombre"><g id="Logo_de_ROWE" data-name="Logo de ROWE"><path class="cls-1" d="M52.94,182l8.16,25.43H49.35l-1.92-6.12-5.64-16.43h-.6l.36,22.55L31,207.19c-.36-37.06-.6-56.85-.6-59.13,1.92-.24,4-.36,6.11-.59,1.08,0,2.52-.24,3.84-.24h3.36c5.16,0,8.51,1,10.55,3a11.26,11.26,0,0,1,3,8.28c0,9.47-.24,14.75-.24,15.95a8.49,8.49,0,0,1-.72,3.36,6.77,6.77,0,0,1-1.92,2.63A2.09,2.09,0,0,1,52.94,182ZM41.43,156.58l-.36,15.95h.36a3.78,3.78,0,0,0,1.56.24h.36a1.47,1.47,0,0,0,1-.24,5.33,5.33,0,0,0,1.56-1.68c.24-.72.36-1.56.6-2h0l.24-7.19a7.29,7.29,0,0,0-.24-2.28,3.12,3.12,0,0,0-1.32-1.92,1.37,1.37,0,0,0-1-.36,5.42,5.42,0,0,0-2-.24,1,1,0,0,0-.72-.24Z"/><path class="cls-1" d="M61.82,171.21l.24-12.71A14.7,14.7,0,0,1,63.74,153a10.5,10.5,0,0,1,3.95-4,20.82,20.82,0,0,1,5.52-1.55,17.4,17.4,0,0,1,5.76,0,10.52,10.52,0,0,1,7.55,3.35A21.18,21.18,0,0,1,89,155.74a27.15,27.15,0,0,1,1,5.52v6.11c0,4,0,8.28-.24,13.07-.24,5.16-.24,9.24-.24,12.12v4.19A11.79,11.79,0,0,1,86.28,205a12.81,12.81,0,0,1-9.71,3.6H73.21c-2,0-4.56-1.32-7.2-3.84a12.38,12.38,0,0,1-3.23-7.56C62.42,194.47,62.18,185.84,61.82,171.21Zm11-7.8c0,1.68-.24,11.52-.24,29.39V193a23.2,23.2,0,0,0,.36,2.87,2.84,2.84,0,0,0,2.28,2h.6a3.12,3.12,0,0,0,1.68-.6,3.35,3.35,0,0,0,1.32-1.56,13.17,13.17,0,0,0,.72-3.83v-.36c.24-11.4.36-19.31.36-24.23a51.93,51.93,0,0,0-.24-6.11,3.6,3.6,0,0,0-2.64-2.64,2.18,2.18,0,0,0-1.32-.24,2.27,2.27,0,0,0-2,1.32,6.59,6.59,0,0,0-.84,3.71Z"/><path class="cls-1" d="M139.05,197a12,12,0,0,1-2.52,7.2,11,11,0,0,1-6.6,3.84,17.19,17.19,0,0,1-3.36.36A31,31,0,0,1,123,208a9.91,9.91,0,0,1-6.6-3.84,9,9,0,0,1-4.2,3.36,13.75,13.75,0,0,1-5.27,1h-.24A13.89,13.89,0,0,1,97.91,206a11.91,11.91,0,0,1-4-6.24,40.66,40.66,0,0,1-1-8.51V148.3l10.55.36v43.06a10.94,10.94,0,0,0,.6,3.35,4.46,4.46,0,0,0,1.08,1.68,2.27,2.27,0,0,0,1.92.72,3.24,3.24,0,0,0,3-1.32,7.21,7.21,0,0,0,.6-2.63V165.09c0-4.55-.24-9.83-.24-16h0l11,.24c-.24,15-.36,24.59-.36,29v14.16a7.63,7.63,0,0,0,.72,3.35,2.88,2.88,0,0,0,2.64,1.32h.24a3.7,3.7,0,0,0,1.91-.72,2.56,2.56,0,0,0,1.08-1.68,10.65,10.65,0,0,0,.6-3.35V148.54l10.56-.36V197Z"/><path class="cls-1" d="M170,196v1a11.33,11.33,0,0,1-3.24,8.16,12.84,12.84,0,0,1-9.72,3.6h-3.35c-2,0-4.56-1.32-7.2-3.84a12.39,12.39,0,0,1-3.24-7.56c-.24-1.56-.36-6.47-.6-14.63s-.36-13.67-.36-16.67v-1.56c0-2,.24-4.19.36-6.47a15.07,15.07,0,0,1,1.68-5.52,10.6,10.6,0,0,1,4-4,22.09,22.09,0,0,1,5.28-1.55c1,0,1.92-.24,2.88-.24a11.53,11.53,0,0,1,2.87.24,9.92,9.92,0,0,1,7.56,3.59,21.38,21.38,0,0,1,2.52,4.92,27.15,27.15,0,0,1,1,5.52v19.66c-5.16,0-10.8.24-17,.24v11.4a21.59,21.59,0,0,0,.36,3,2.84,2.84,0,0,0,2.28,2h.6a3.08,3.08,0,0,0,1.67-.6,3.2,3.2,0,0,0,1.32-1.56c.6-1.32.72-3.95.72-7.91v-.6H170Zm-16.67-32.74v9.48h8.27a42.32,42.32,0,0,0,.24-5.28c0-1.92-.24-3.84-.36-5.51a4.1,4.1,0,0,0-3.24-3.24,3,3,0,0,0-1.55-.24,2.84,2.84,0,0,0-2.52,1.32,7.35,7.35,0,0,0-.84,3.47Z"/><path class="cls-2" d="M175.26,204.31h.36V205h0v1.32h-2.28v-2.28Z"/><path class="cls-2" d="M188,194.35v12.24h-2.63V195.67c0-.36,0-.6-.24-.72a.4.4,0,0,0-.36-.36.69.69,0,0,0-.6-.24h0c-.24,0-.6.24-.6.36a1.27,1.27,0,0,0-.24,1h0V207h-2.64V195.43h0c0-.24,0-.6-.24-.72a.87.87,0,0,0-.72-.36.68.68,0,0,0-.6.24l-.36.36a1.32,1.32,0,0,0-.24,1v11h-2.64v-11a5.42,5.42,0,0,1,.24-2,6.69,6.69,0,0,1,1-1.55,3.77,3.77,0,0,1,2.28-.6h0a2.51,2.51,0,0,1,1.32.24,2.82,2.82,0,0,1,1,.72c.36-.6,1-.72,1.68-1h1.92c.72.24,1.32.36,1.68,1A1.54,1.54,0,0,1,188,194.35Z"/><path class="cls-2" d="M197,206.59h-3l-1.08-3.6-1,3.6h-2.88l2-7.44-2.28-7.55,3.24.24,1,3.95,1.08-4.19H197L194.45,199Z"/></g><path class="cls-2" d="M1,172.17v-7.92c0-4.67-.24-10.07-.24-15.95H1l2-.24H5.69a6.06,6.06,0,0,1,2.52.6,4.3,4.3,0,0,1,1.92,1.92,5.53,5.53,0,0,1,.6,2.52v1a4,4,0,0,1-.24,1.68,4,4,0,0,1-.6,1.92A2.43,2.43,0,0,1,8.81,159a2.73,2.73,0,0,1,2,1.56,6.13,6.13,0,0,1,1,3.35h0v3.48a12.3,12.3,0,0,1-.6,2.88,6.49,6.49,0,0,1-1.56,2.28,5.22,5.22,0,0,1-2.52,1.08H5.57a13.8,13.8,0,0,1-2.87-.24l-1.92-.24Zm7.07-5.28v-2.28a5.83,5.83,0,0,0-.24-2A2.6,2.6,0,0,0,7.13,161a1.35,1.35,0,0,0-1-.36H5c0,1-.24,2-.24,3.35v1.56a13.71,13.71,0,0,0,.24,3h.24a1.79,1.79,0,0,0,1.08.24h.36c.24,0,.36-.24.72-.6a1,1,0,0,0,.73-1.28ZM6.53,152.14a1.47,1.47,0,0,0-1-.24H5v5.76H6.05c.36-.24.6-.36.72-.72a2.82,2.82,0,0,0,.36-1.68v-.6a1.78,1.78,0,0,0-.24-1.08,1.18,1.18,0,0,0-.6-1C6.77,152.14,6.53,152.14,6.53,152.14Z"/><path class="cls-2" d="M14.33,171.57V167l.36.24a5.69,5.69,0,0,0,1.68.72,6,6,0,0,0,2.64.6h.23a1.26,1.26,0,0,0,1-.24,5.94,5.94,0,0,0,1-.6,2.64,2.64,0,0,0,.36-1.32v-1.56a4.81,4.81,0,0,1-2.87,1h-.24a6,6,0,0,1-2.64-.6,5.21,5.21,0,0,1-1.08-.72,4.44,4.44,0,0,1-1-2c0-.6-.24-2.28-.24-4.68a46.45,46.45,0,0,0-.24-6.24V148.9h4.68l.24,6.24v.72a28.18,28.18,0,0,0,.24,4.68,2.53,2.53,0,0,0,.24,1.32,3.77,3.77,0,0,0,1,1h.24c.24,0,.6,0,.72-.24l.6-.6a2.94,2.94,0,0,0,.36-1.56V148.66h4.2v18.59a8.74,8.74,0,0,1-.72,3.6,4,4,0,0,1-2,1.92,5.63,5.63,0,0,1-2.52.6,12.5,12.5,0,0,1-3-.24A12.49,12.49,0,0,1,14.33,171.57Z"/></g></g></g></g></svg>