<svg xmlns="http://www.w3.org/2000/svg" viewBox="0 0 709.32 265.61"><defs><style>.cls-1{fill:#fff;}</style></defs><g id="Capa_2" data-name="Capa 2"><g id="Capa_1-2" data-name="Capa 1"><g id="_4" data-name="4"><g id="Nombre"><path class="cls-1" d="M103.64,257.79l35.28,109.06H88.6L80.38,341,56.13,270H53.32l1.41,96.83L9,366Q6.82,126.3,6.62,111.26q12.21-1.22,26.46-2.41,7.81-.6,16.23-.6,6.61,0,13.43.4h1.81q32.86.21,45.6,12.83t13.13,36.08q-.6,60.75-.6,68.36a32.65,32.65,0,0,1-3.41,14.43,47.34,47.34,0,0,1-7.81,11.73Q107.05,256.79,103.64,257.79ZM54.32,148.54l-1.4,68.56,1.61.4a50.11,50.11,0,0,0,6.61,1.2,9.69,9.69,0,0,0,2,.2,8.09,8.09,0,0,0,4-1,15.83,15.83,0,0,0,6.42-7.71,34.51,34.51,0,0,0,2.2-9.33v-.2l.41-31.07a49.32,49.32,0,0,0-1-9.92,13.08,13.08,0,0,0-5.41-8.12,11.87,11.87,0,0,0-3.81-2,29.2,29.2,0,0,0-8.42-1.2A26.6,26.6,0,0,0,54.32,148.54Z" transform="translate(-6.62 -107.85)"/><path class="cls-1" d="M142.73,211.49l.6-54.93a70.37,70.37,0,0,1,7.32-23.85A40.32,40.32,0,0,1,168,115.47a69.81,69.81,0,0,1,23.25-6.42q6.21-.6,12.43-.6,6,0,12,.6,19.85.4,32.47,15.24a63.37,63.37,0,0,1,10.63,21.45,110.19,110.19,0,0,1,3.81,23.65q.39,12.23.4,26.06,0,25.26-1.21,56.13-1.2,33.28-1.2,52.52,0,8.41.2,14.23c.13,1.34.2,2.61.2,3.81q0,20.25-14,35.69-16.64,15.63-41.3,15.63-1.2,0-14.83-.3T159.77,357a54.12,54.12,0,0,1-13.83-32.47Q144.13,305.5,142.73,211.49Zm46.71-34.08q-.6,11-.61,126.09v1.2a39,39,0,0,0,2,12.43,14.39,14.39,0,0,0,9.42,9.22,12.85,12.85,0,0,0,2.21.2,13.26,13.26,0,0,0,7.21-2.3,16.55,16.55,0,0,0,5.82-6.72,43.86,43.86,0,0,0,3-16.23v-2q1.81-73,1.81-104.64,0-19.05-1.21-26.46t-11.22-11.43a21.46,21.46,0,0,0-5.41-.8q-5.62,0-9,5.61T189.44,177.41Z" transform="translate(-6.62 -107.85)"/><path class="cls-1" d="M474.89,321.74q-.6,18-10.42,31.07t-28.26,16.64a71.25,71.25,0,0,1-14.44,1.4,93.45,93.45,0,0,1-15.83-1.4q-16.65-2.61-28.27-16A35.25,35.25,0,0,1,360,368a63.9,63.9,0,0,1-23,4.31h-1q-25.05-.4-37.88-10.63a47.5,47.5,0,0,1-16.84-27,157.45,157.45,0,0,1-4-36.78v-86.4q-.21-31.08-.2-58.34V112.46l45.5,1.6v30.57q0,20.15-.2,43.6,0,23.66-.1,57.84t-.1,51.82a26.56,26.56,0,0,0-.2,3.2,44.07,44.07,0,0,0,2.41,14.44,20.91,20.91,0,0,0,5.31,7.62,12,12,0,0,0,8.32,3.2q10.22-.19,12.73-6.11a29.87,29.87,0,0,0,2.5-11.73v-1a17.51,17.51,0,0,0,.2-2.61c0-.53,0-1.83.1-3.91s.11-4.34.11-6.81,0-6.55.09-12.23.11-18.21.11-37.59-.07-38.75-.2-58.13-.48-42.23-1-68.56h.2q1.21,0,47.11,1.2-1.4,96.23-1.4,124.69,0,28.67.2,38.49T399,295c.07,2.07.13,3.94.2,5.61s.1,2.71.1,3.11v1q0,9.63,3.61,15,3.4,5.42,11,5.41h1a14,14,0,0,0,8.22-3.61,18.8,18.8,0,0,0,5.21-7.42,44.22,44.22,0,0,0,2.4-14.43,26.73,26.73,0,0,0-.2-3.21l-.4-35.28q-.19-10.41-.3-30.47t-.1-43.3q-.19-23.25-.3-43.3t-.3-30.27l45.5-1.4q.4,12.63.41,35.48,0,23.06-.21,49.11Z" transform="translate(-6.62 -107.85)"/><path class="cls-1" d="M608,317.73c.13,1.47.2,2.88.2,4.21q0,20.06-13.83,35.28-16.85,15.64-41.7,15.64-.79,0-14.43-.3t-31.07-16.14A54.18,54.18,0,0,1,493.34,324q-1.2-10-2.81-62.65t-1.8-71.46v-6.22a215.55,215.55,0,0,1,1.6-27.46,70.37,70.37,0,0,1,7.32-23.85A40.32,40.32,0,0,1,515,115.07a65.53,65.53,0,0,1,23.25-6.62q6.21-.6,12.23-.6t12,.6q19.85.4,32.67,15.24A64.51,64.51,0,0,1,605.7,145a106.81,106.81,0,0,1,3.91,23.56q.2,5.82.1,43.7t-.1,40.69q-32.88.41-73.37,1L536,303.1a44.65,44.65,0,0,0,2,13.43,15,15,0,0,0,9.62,9.22,10.87,10.87,0,0,0,2.21.2,13.06,13.06,0,0,0,7-2.3,16.55,16.55,0,0,0,5.82-6.72q3.4-8.22,3.41-34.08v-3l41.69-.2v17Q607.8,311.53,608,317.73ZM536.64,176.81q-.21,3.21-.2,13,0,9.61.2,25.86v2l35.88-.4q.6-13,.6-22.85a146.81,146.81,0,0,0-1.7-24.06q-1.71-10-13.53-14.23a27.69,27.69,0,0,0-6.22-.8A12.19,12.19,0,0,0,541.15,161Q537.23,166.58,536.64,176.81Z" transform="translate(-6.62 -107.85)"/><path d="M621.73,357.57h1.42l0,3.51h-.05L622.9,367l-9.63-.05v-9.53Z" transform="translate(-6.62 -107.85)"/><path d="M676.86,313.7c.06,2.38.1,4.75.1,7.13,0,1.6,0,3.19-.05,4.79l-.16,19q0,6.84-.2,22.27l-11.62-.05.31-18.85q0-6,.18-14.63t.18-12.94a7.34,7.34,0,0,0,0-.81,11.44,11.44,0,0,0-.61-3.67,4.63,4.63,0,0,0-1.33-1.91,3.6,3.6,0,0,0-2.09-.89h-.25a3.12,3.12,0,0,0-2.81,1.32,7.1,7.1,0,0,0-.91,3.87v.26c0,.1,0,.36,0,.76s0,.88,0,1.4,0,4-.07,10.53v2.65q0,10.19.3,32.25l-.71-.05a11,11,0,0,1-1.71.07l-3.92.05-4,0h-1.73q.3-25.38.28-34.88T646,321c0-.61,0-1.18,0-1.7s0-.86,0-1a4.54,4.54,0,0,0-.05-.66v-.25a7.47,7.47,0,0,0-.64-3c-.42-1-1.5-1.51-3.23-1.58a3.21,3.21,0,0,0-2.12.87,5.53,5.53,0,0,0-1.35,1.88,11.6,11.6,0,0,0-.61,3.72,7.67,7.67,0,0,0,0,.82q0,4.32,0,12.94t0,14.57l0,18.9-11.56.36q0-17.22,0-25.12v-22a39.91,39.91,0,0,1,1-9.3,12.07,12.07,0,0,1,4.28-6.85q3.26-2.6,9.63-2.7h.25a16.32,16.32,0,0,1,5.84,1.09,8.9,8.9,0,0,1,4.5,3.7,11.91,11.91,0,0,1,7.14-4.13,27,27,0,0,1,3.92-.31,19.73,19.73,0,0,1,3.82.36,11.33,11.33,0,0,1,7.19,4.23A13.62,13.62,0,0,1,676.86,313.7Z" transform="translate(-6.62 -107.85)"/><path d="M715.94,367.25l-13-.21-5-15.69-4.08,15.59H681.29l9.07-32.15-10-32.86,13.61.41,4,17.27,4.79-17.68,12.53.35-10.24,32Z" transform="translate(-6.62 -107.85)"/></g></g></g></g></svg>