<svg id="Capa_1" data-name="Capa 1" xmlns="http://www.w3.org/2000/svg" viewBox="0 0 709.32 265.61"><defs><style>.cls-1{fill:#fff;}</style></defs><path class="cls-1" d="M97,149.94,132.3,259H82l-8.22-25.85-24.25-71H46.7L48.11,259l-45.73-.83Q.21,18.45,0,3.41,12.21,2.2,26.46,1,34.28.4,42.69.4q6.62,0,13.43.4h1.81Q90.8,1,103.53,13.63t13.13,36.08q-.6,60.75-.6,68.36a32.54,32.54,0,0,1-3.41,14.43,47.34,47.34,0,0,1-7.81,11.73Q100.43,148.94,97,149.94ZM47.7,40.69l-1.4,68.56,1.61.4a49.24,49.24,0,0,0,6.61,1.2,9.62,9.62,0,0,0,2,.2,8.08,8.08,0,0,0,4-1,15.82,15.82,0,0,0,6.42-7.72A34.41,34.41,0,0,0,69.14,93v-.2l.41-31.07a49.31,49.31,0,0,0-1-9.92,13.07,13.07,0,0,0-5.41-8.12,12,12,0,0,0-3.81-2,29.25,29.25,0,0,0-8.42-1.2A26.58,26.58,0,0,0,47.7,40.69Z"/><path class="cls-1" d="M136.11,103.64l.6-54.93A70.41,70.41,0,0,1,144,24.86,40.34,40.34,0,0,1,161.38,7.62,69.8,69.8,0,0,1,184.63,1.2q6.21-.6,12.43-.6,6,0,12,.6,19.84.41,32.47,15.24a63.48,63.48,0,0,1,10.63,21.45A110.09,110.09,0,0,1,256,61.54q.39,12.23.4,26.06,0,25.26-1.21,56.13Q254,177,254,196.25q0,8.42.2,14.23c.13,1.34.2,2.61.2,3.81q0,20.25-14,35.69-16.63,15.63-41.3,15.63-1.2,0-14.83-.3t-31.08-16.16a54.1,54.1,0,0,1-13.83-32.47Q137.51,197.65,136.11,103.64Zm46.71-34.08q-.6,11-.61,126.09v1.2a38.93,38.93,0,0,0,2,12.43,14.38,14.38,0,0,0,9.42,9.22,12.61,12.61,0,0,0,2.21.2,13.26,13.26,0,0,0,7.21-2.3,16.53,16.53,0,0,0,5.82-6.72,43.79,43.79,0,0,0,3-16.24v-2q1.81-73,1.81-104.64,0-19-1.21-26.46T201.25,48.91a21.07,21.07,0,0,0-5.41-.8q-5.62,0-9,5.61T182.82,69.56Z"/><path class="cls-1" d="M468.27,213.89q-.6,18-10.42,31.07T429.59,261.6a72.13,72.13,0,0,1-14.44,1.4,94.38,94.38,0,0,1-15.83-1.4q-16.65-2.61-28.27-16a35.29,35.29,0,0,1-17.67,14.55,63.93,63.93,0,0,1-23,4.31h-1q-25-.4-37.88-10.63a47.5,47.5,0,0,1-16.84-27,157.52,157.52,0,0,1-4-36.78v-86.4q-.21-31.08-.2-58.34V4.61L316,6.21V36.78q0,20.14-.2,43.6,0,23.66-.1,57.84t-.1,51.82a26.31,26.31,0,0,0-.2,3.2,44.11,44.11,0,0,0,2.41,14.44,20.75,20.75,0,0,0,5.31,7.61,11.89,11.89,0,0,0,8.32,3.21q10.22-.19,12.73-6.11a29.79,29.79,0,0,0,2.5-11.73v-1a17.54,17.54,0,0,0,.2-2.61c0-.53,0-1.83.1-3.91s.11-4.34.11-6.81,0-6.55.09-12.23.11-18.21.11-37.59-.07-38.75-.2-58.13-.48-42.23-1-68.56h.2q1.22,0,47.11,1.2Q392,107.25,392,135.71q0,28.66.2,38.49t.23,13c.07,2.07.13,3.94.2,5.61s.1,2.71.1,3.11v1q0,9.63,3.61,15,3.4,5.41,11,5.41h1a14,14,0,0,0,8.22-3.61,18.81,18.81,0,0,0,5.21-7.42,44,44,0,0,0,2.4-14.43,26.47,26.47,0,0,0-.2-3.21l-.4-35.28q-.19-10.43-.3-30.47t-.1-43.3q-.19-23.25-.3-43.3T422.52,6L468,4.59q.41,12.63.41,35.48,0,23.06-.21,49.11Z"/><path class="cls-1" d="M601.38,209.88c.13,1.47.2,2.88.2,4.21q0,20.06-13.83,35.28Q570.91,265,546.05,265q-.79,0-14.43-.3t-31.07-16.14a54.2,54.2,0,0,1-13.83-32.42q-1.2-10-2.81-62.65T482.11,82V75.82a215.39,215.39,0,0,1,1.6-27.46A70.39,70.39,0,0,1,491,24.5,40.32,40.32,0,0,1,508.38,7.22,65.61,65.61,0,0,1,531.63.6q6.21-.6,12.23-.6t12,.6q19.85.4,32.67,15.24a64.5,64.5,0,0,1,10.55,21.31A106.92,106.92,0,0,1,603,60.71q.19,5.82.1,43.7T603,145.1q-32.88.41-73.37,1l-.24,49.15a44.65,44.65,0,0,0,2,13.43A15,15,0,0,0,541,217.9a11,11,0,0,0,2.21.2,13.07,13.07,0,0,0,7-2.3,16.53,16.53,0,0,0,5.82-6.72q3.4-8.22,3.41-34.08v-3l41.69-.2v17Q601.17,203.68,601.38,209.88ZM530,69q-.21,3.21-.2,13,0,9.62.2,25.86v2l35.88-.4q.6-13,.6-22.85a146.82,146.82,0,0,0-1.7-24.06q-1.71-10-13.53-14.23a27.76,27.76,0,0,0-6.22-.8,12.18,12.18,0,0,0-10.52,5.67Q530.62,58.73,530,69Z"/><path d="M615.11,249.72h1.42v3.51h0l-.2,5.92-9.63,0v-9.53Z"/><path d="M670.24,205.85c.06,2.38.1,4.75.1,7.13,0,1.6,0,3.19-.05,4.79l-.16,19q0,6.84-.2,22.27L658.31,259l.31-18.85q0-6,.18-14.63t.18-12.94q0-.4,0-.81a11.44,11.44,0,0,0-.61-3.67,4.56,4.56,0,0,0-1.33-1.91,3.61,3.61,0,0,0-2.09-.89h-.25a3.13,3.13,0,0,0-2.81,1.32,7.08,7.08,0,0,0-.91,3.87v2.42c0,.52,0,4-.07,10.53v2.64q0,10.2.3,32.26l-.71-.05a10.87,10.87,0,0,1-1.71.07l-3.92,0h-5.73q.3-25.38.28-34.88V210.4a4.89,4.89,0,0,0,0-.66v-.25a7.38,7.38,0,0,0-.64-3c-.42-1-1.5-1.51-3.23-1.58a3.23,3.23,0,0,0-2.12.87,5.47,5.47,0,0,0-1.35,1.88,11.79,11.79,0,0,0-.61,3.72c0,.27,0,.55,0,.82v46.41l-11.56.36V211.85a39.85,39.85,0,0,1,1-9.3,12.06,12.06,0,0,1,4.28-6.85q3.25-2.59,9.63-2.7H635a16.18,16.18,0,0,1,5.84,1.09,8.9,8.9,0,0,1,4.5,3.7,11.9,11.9,0,0,1,7.14-4.13,27.13,27.13,0,0,1,3.92-.31,20.42,20.42,0,0,1,3.82.36,11.31,11.31,0,0,1,7.19,4.23A13.59,13.59,0,0,1,670.24,205.85Z"/><path d="M709.32,259.4l-13-.21-5-15.69-4.08,15.59H674.67l9.07-32.15-10-32.86,13.61.4,4,17.28,4.79-17.68,12.53.35-10.24,32Z"/></svg>