<?xml version="1.0" encoding="utf-8"?>
<!-- Generator: Adobe Illustrator 24.1.2, SVG Export Plug-In . SVG Version: 6.00 Build 0)  -->
<svg version="1.1" id="Capa_1" xmlns="http://www.w3.org/2000/svg" xmlns:xlink="http://www.w3.org/1999/xlink" x="0px" y="0px"
	 viewBox="0 0 632.5 632.5" style="enable-background:new 0 0 632.5 632.5;" xml:space="preserve">
<style type="text/css">
	.st0{fill:#FFFFFF;}
</style>
<path class="st0" d="M469,162.4c-40.2-40.6-94.9-63.3-152-63c-118.3,0-214.9,96.4-214.9,214.9c0,37.9,10,74.8,28.7,107.5L100.3,533
	l114-29.9c31.6,17.2,66.9,26.2,102.7,26.2h0.1c118.4,0,214.9-96.4,214.9-214.9C532.1,257.4,509.4,202.7,469,162.4L469,162.4z
	 M317,493c-32,0-63.4-8.6-91-24.9l-6.5-3.9l-67.6,17.7L170,416l-4.2-6.8c-17.9-28.5-27.4-61.4-27.3-95
	c0-98.3,80.1-178.4,178.7-178.4c47.4-0.1,92.9,18.7,126.3,52.3c33.5,33.5,52.3,78.9,52.3,126.3C495.6,412.9,415.4,493,317,493z
	 M415,359.3c-5.3-2.7-31.7-15.6-36.6-17.5c-4.9-1.8-8.6-2.7-12.1,2.7c-3.6,5.3-13.9,17.5-17,21c-3.1,3.6-6.3,4-11.6,1.3
	c-5.3-2.7-22.6-8.3-43.1-26.7c-16-14.2-26.7-31.9-29.9-37.2c-3.1-5.4-0.3-8.3,2.4-10.9c2.4-2.4,5.3-6.3,8-9.4s3.6-5.4,5.4-8.9
	c1.8-3.6,0.9-6.7-0.4-9.4c-1.3-2.7-12.1-29.2-16.6-39.8c-4.4-10.5-8.8-9.1-12.1-9.2c-3.1-0.2-6.7-0.2-10.3-0.2
	c-5.5,0.1-10.7,2.6-14.3,6.7c-4.9,5.4-18.7,18.4-18.7,44.8s19.2,51.9,22,55.5c2.7,3.6,37.8,57.8,91.7,81.1
	c12.8,5.5,22.8,8.8,30.6,11.4c12.9,4.1,24.5,3.5,33.8,2.1c10.3-1.5,31.7-13,36.3-25.6c4.4-12.6,4.4-23.3,3.1-25.6
	C424,363.2,420.4,361.9,415,359.3z"/>
</svg>
