<svg id="Capa_1" data-name="Capa 1" xmlns="http://www.w3.org/2000/svg" viewBox="0 0 169.72 145.59"><defs><style>.cls-1{fill:#ff7a00;}</style></defs><path class="cls-1" d="M17.33,59.08c.24-.36.37-.36.37-.6,1.13-5.59,1.13-5.59,7.24-5.59H144.28c2,0,4.56-.6,6.1.35,1.08.72,1.32,3.22,2.28,5.48,3.06-1.08,6.24-2.51,9.47-3.57,3.25-1.31,6.11-.24,7.21,2.86,1,2.62,0,5.13-3.24,6.44-3.6,1.55-7.45,3-11,4.17-2.52,1-3.6,2.27-3.6,4.89.24,9.1-.24,17.9,0,26.72.36,14.66-7,25.39-18.32,33.49-10.44,7.52-22.56,10.94-35.4,11.47-15.11.71-30.35,1-44.87-3.83-10.18-3.21-19.68-7.87-26.75-16.57-5.3-6.8-8.35-14.08-8.35-22.79V73c0-2.26-.6-3.33-2.63-4.17-4-1.31-7.81-3-11.52-4.53C.5,63-.85,60.32.5,57.5s3.6-3.82,7-2.62Zm108.94,42.57V102H139.1c4.69-.23,7-2.25,6.61-6.79-1-10.12-4.2-19.22-13.32-25-7.2-4.54-15.11-5.13-23.65-3.34C92.8,70.18,81.63,89.61,87.52,104.62a31.4,31.4,0,0,0,20.9,19.81c11.51,3.57,21.83.59,30.83-7,1.92-1.66,2.28-3.34.23-5.24l-5.09-5.12c-1.68-1.67-3.24-1.67-5.28-.6a25.83,25.83,0,0,1-6.47,3c-5.88,2-13.45,0-16.44-4.29a20.1,20.1,0,0,1-1-3,11.45,11.45,0,0,1,2.64-.71c6.11.12,12.36.12,18.47.12ZM30.78,91h0v29.73c0,4,.24,4.18,4.32,4.18,3.36,0,6.84-.24,10.18,0s4.31-1,4.31-4.18c-.24-4.89,0-9.77,0-14.67,0-2.86.72-4.17,3.84-3.82a66.51,66.51,0,0,0,7.2,0C77.07,102.24,87.39,90,84.15,74c-1.93-9.65-9.24-16.57-18.73-16.81-10.18-.36-20.62,0-31.07-.24-2.64,0-3.59,1.08-3.59,3.82Z"/><path class="cls-1" d="M150.28,47.35h-131c2.63-2.27,4.56-4,6.59-5.61A97.47,97.47,0,0,1,72.65,22.29c2.88-.37,3.61-1.32,2.64-4a83,83,0,0,1-2.64-8.47C71.93,7,72.41,4.6,75.29,2.89c6.23-3.58,12.77-3.35,19-.72,3.84,1.55,4.67,4.29,3.59,8.7-.71,2.87-1.56,5.49-2.28,8.1-.72,2.26,0,3,2.28,3.34a93.79,93.79,0,0,1,47.51,19.88c1.68,1.31,3.37,3,5.29,4.3Z"/><path class="cls-1" d="M126.64,87.92H106.71c.73-3.27,4.63-6.91,7.93-7.28C119.69,80.08,123.69,82.34,126.64,87.92Z"/><path class="cls-1" d="M55.48,72.75c6.71,0,9.88,2.31,10,7.08,0,5-3.06,7.28-10,7.28s-6.35,1-6.35-6.31V79.43C49,71.66,48.14,72.75,55.48,72.75Z"/></svg>