<svg id="Capa_1" data-name="Capa 1" xmlns="http://www.w3.org/2000/svg" viewBox="0 0 206.15 206.14"><defs><style>.cls-1{fill:#fff;}</style></defs><path class="cls-1" d="M133.29,173.23H72.85A40,40,0,0,1,32.91,133.3V72.85A40,40,0,0,1,72.85,32.91h60.44a40,40,0,0,1,39.94,39.94V133.3A40,40,0,0,1,133.29,173.23ZM72.85,44.94A27.94,27.94,0,0,0,44.94,72.85V133.3a28,28,0,0,0,27.91,27.91h60.44a28,28,0,0,0,27.92-27.91V72.85a28,28,0,0,0-27.92-27.91Z"/><path class="cls-1" d="M103.07,139A35.93,35.93,0,1,1,139,103.07,36,36,0,0,1,103.07,139Zm0-59.83a23.9,23.9,0,1,0,23.9,23.9A23.93,23.93,0,0,0,103.07,79.17Z"/><path class="cls-1" d="M149.18,65.09a8.64,8.64,0,1,1-8.64-8.64A8.63,8.63,0,0,1,149.18,65.09Z"/></svg>