<svg id="Capa_1" data-name="Capa 1" xmlns="http://www.w3.org/2000/svg" viewBox="0 0 206.04 206.15"><defs><style>.cls-1{fill:#fff;}</style></defs><path class="cls-1" d="M47.74,95l9.42,29.12H43.72l-2.19-6.9-6.48-19H34.3l.38,25.86-12.21-.22q-.59-64-.64-68c2.18-.22,4.53-.44,7.07-.65,1.39-.1,2.83-.16,4.33-.16,1.18,0,2.37,0,3.59.11h.48q8.78.06,12.18,3.42T53,68.23q-.16,16.22-.16,18.25a8.62,8.62,0,0,1-.91,3.86,12.59,12.59,0,0,1-2.09,3.13A5.14,5.14,0,0,1,47.74,95ZM34.57,65.82l-.38,18.31.43.1a11.72,11.72,0,0,0,1.77.32,2.33,2.33,0,0,0,.53.06A2.21,2.21,0,0,0,38,84.34a4.21,4.21,0,0,0,1.71-2.06,9,9,0,0,0,.59-2.49v-.05l.11-8.3a13.09,13.09,0,0,0-.27-2.65,3.49,3.49,0,0,0-1.44-2.17,3.2,3.2,0,0,0-1-.53,7.75,7.75,0,0,0-2.25-.32A8.08,8.08,0,0,0,34.57,65.82Z"/><path class="cls-1" d="M58.17,82.63,58.33,68a18.8,18.8,0,0,1,2-6.37A10.82,10.82,0,0,1,64.92,57a18.48,18.48,0,0,1,6.21-1.71c1.11-.11,2.21-.16,3.32-.16a31,31,0,0,1,3.2.16,11.15,11.15,0,0,1,8.67,4.06,16.81,16.81,0,0,1,2.84,5.73,29.35,29.35,0,0,1,1,6.32q.1,3.26.11,7,0,6.74-.33,15-.31,8.9-.32,14c0,1.5,0,2.76.06,3.8,0,.36,0,.7,0,1A13.78,13.78,0,0,1,86,121.71a15.5,15.5,0,0,1-11,4.17l-4-.08q-3.63-.08-8.3-4.32A14.46,14.46,0,0,1,59,112.81Q58.55,107.74,58.17,82.63Zm12.48-9.1q-.16,2.94-.16,33.67v.32a10.12,10.12,0,0,0,.53,3.32,3.14,3.14,0,0,0,3.11,2.51,3.49,3.49,0,0,0,1.92-.61,4.53,4.53,0,0,0,1.56-1.8,11.67,11.67,0,0,0,.8-4.33v-.54q.48-19.48.48-27.94a52.3,52.3,0,0,0-.32-7.06q-.33-2-3-3a5.4,5.4,0,0,0-1.44-.22,2.74,2.74,0,0,0-2.41,1.5A9.39,9.39,0,0,0,70.65,73.53Z"/><path class="cls-1" d="M146.87,112.07a14.21,14.21,0,0,1-2.78,8.3,11.9,11.9,0,0,1-7.55,4.44,19.17,19.17,0,0,1-3.85.37,24.91,24.91,0,0,1-4.23-.37,12.3,12.3,0,0,1-7.55-4.27,9.42,9.42,0,0,1-4.72,3.88,17,17,0,0,1-6.14,1.15h-.27q-6.69-.1-10.12-2.84a12.64,12.64,0,0,1-4.49-7.21,42.1,42.1,0,0,1-1.07-9.82V82.63q-.06-8.3,0-15.58V56.19l12.15.42v8.17q0,5.37-.06,11.64t0,15.44q0,9.14,0,13.84a6.06,6.06,0,0,0,0,.85,11.75,11.75,0,0,0,.64,3.86,5.45,5.45,0,0,0,1.42,2,3.16,3.16,0,0,0,2.22.86c1.82,0,3-.58,3.4-1.63a8.07,8.07,0,0,0,.67-3.13v-.27a5.36,5.36,0,0,0,0-.7c0-.14,0-.49,0-1s0-1.16,0-1.82,0-1.75,0-3.27,0-4.86,0-10,0-10.35,0-15.53-.13-11.27-.27-18.3h0q.33,0,12.58.32-.37,25.7-.37,33.29c0,5.11,0,8.53.05,10.28s.06,2.9.07,3.46,0,1,0,1.5,0,.72,0,.83v.26a7.16,7.16,0,0,0,1,4,3.18,3.18,0,0,0,2.94,1.44h.26a3.76,3.76,0,0,0,2.2-1,5.1,5.1,0,0,0,1.39-2,11.74,11.74,0,0,0,.64-3.85,8.11,8.11,0,0,0-.05-.86l-.11-9.42q0-2.79-.08-8.14t0-11.56q0-6.21-.08-11.56c0-3.57,0-6.27-.08-8.09l12.15-.37q.1,3.38.11,9.47t0,13.12Z"/><path class="cls-1" d="M182.41,111a11.09,11.09,0,0,1,.06,1.12,13.55,13.55,0,0,1-3.7,9.42,15.72,15.72,0,0,1-11.13,4.18l-3.85-.08q-3.64-.08-8.3-4.31a14.45,14.45,0,0,1-3.69-8.66q-.33-2.67-.75-16.73t-.48-19.08V75.2a56.1,56.1,0,0,1,.42-7.33,18.8,18.8,0,0,1,2-6.37,10.81,10.81,0,0,1,4.63-4.62,17.29,17.29,0,0,1,6.21-1.76c1.1-.11,2.19-.17,3.26-.17a31.23,31.23,0,0,1,3.21.17A11.33,11.33,0,0,1,179,59.18a17.23,17.23,0,0,1,2.82,5.69,28.69,28.69,0,0,1,1,6.3q.06,1.55,0,11.66t0,10.87q-8.78.1-19.59.27l-.06,13.12a11.78,11.78,0,0,0,.53,3.59,4,4,0,0,0,2.57,2.46,2.32,2.32,0,0,0,.59,0,3.47,3.47,0,0,0,1.87-.61,4.43,4.43,0,0,0,1.55-1.8q.91-2.19.91-9.1v-.8l11.14,0v4.54C182.36,108,182.38,109.89,182.41,111Zm-19-37.63c0,.57-.06,1.73-.06,3.47s0,4,.06,6.91v.53l9.58-.11c.11-2.31.16-4.35.16-6.1a40.52,40.52,0,0,0-.45-6.42c-.31-1.78-1.51-3.05-3.62-3.8a7.13,7.13,0,0,0-1.66-.22,3.27,3.27,0,0,0-2.81,1.52A8,8,0,0,0,163.36,73.37Z"/><path class="cls-1" d="M159.06,148.61h.39v.93h0l-.07,1.58H156.8v-2.54Z"/><path class="cls-1" d="M173.78,136.89c0,.64,0,1.27,0,1.91v1.27l0,5.08c0,1.22,0,3.2,0,5.94h-3.1l0-5c0-1.07,0-2.37.05-3.91l0-3.45a1.62,1.62,0,0,0,0-.22,3,3,0,0,0-.16-1,1.2,1.2,0,0,0-.35-.51,1,1,0,0,0-.56-.24h-.07a.84.84,0,0,0-.75.36,1.85,1.85,0,0,0-.24,1v.65c0,.14,0,1.06,0,2.81v.7c0,1.82,0,4.69.08,8.62l-.19,0a2.36,2.36,0,0,1-.46,0l-1.05,0h-1.53c.06-4.52.08-7.63.08-9.32v-3.74a2.06,2.06,0,0,0-.17-.81c-.12-.26-.4-.4-.87-.42a.84.84,0,0,0-.56.24,1.39,1.39,0,0,0-.36.5,3,3,0,0,0-.16,1,1.62,1.62,0,0,0,0,.22V151l-3.08.1V138.5a11,11,0,0,1,.26-2.49,3.28,3.28,0,0,1,1.14-1.83,4.24,4.24,0,0,1,2.58-.72h.07a4.31,4.31,0,0,1,1.55.29,2.46,2.46,0,0,1,1.21,1,3.16,3.16,0,0,1,1.9-1.1,7.42,7.42,0,0,1,1-.08,5.86,5.86,0,0,1,1,.09,3,3,0,0,1,1.92,1.13A3.64,3.64,0,0,1,173.78,136.89Z"/><path class="cls-1" d="M184.21,151.19l-3.47-.06-1.33-4.19-1.09,4.17H175l2.42-8.59-2.67-8.77,3.63.11,1.07,4.61,1.28-4.72,3.35.09-2.74,8.55Z"/></svg>