<svg id="Capa_1" data-name="Capa 1" xmlns="http://www.w3.org/2000/svg" viewBox="0 0 206.04 206.15"><defs><style>.cls-1{fill:#fff;fill-rule:evenodd;}</style></defs><path class="cls-1" d="M104.11,149.26A51.27,51.27,0,0,1,76,140.86l-19.62,6.22,6.33-18.89A50.19,50.19,0,0,1,52.94,98.4a38.07,38.07,0,0,1,.31-4.88,51.2,51.2,0,0,1,101.93.94c.1,1.35.1,2.7.1,3.94a51.07,51.07,0,0,1-51.17,50.86ZM132,110.65c-1.55-.73-8.82-4.36-10.17-4.88s-2.39-.72-3.42.83a71.9,71.9,0,0,1-4.68,5.71c-.93,1-1.76,1.14-3.21.42a39.17,39.17,0,0,1-12-7.37A43.79,43.79,0,0,1,90.2,95.18c-.83-1.55-.1-2.28.63-3.11a19.57,19.57,0,0,0,2.28-2.6,2.64,2.64,0,0,0,.52-.62,15,15,0,0,0,.93-1.76,2.56,2.56,0,0,0-.1-2.6c-.32-.72-3.32-8.09-4.57-11S87.4,71,86.57,71s-1.87-.1-2.91-.1a5.1,5.1,0,0,0-3.94,1.86A16.53,16.53,0,0,0,75.26,90.1a32.66,32.66,0,0,0,5.29,10.28c.72,1,10.28,16.4,25.43,22.31s15.26,4,18,3.74,8.82-3.53,10.07-7.06,1.24-6.44.83-7.06-1.35-.93-2.81-1.66ZM164.94,97a60.6,60.6,0,0,0-60.83-58.86c-32.69,0-59.37,25.54-60.72,57.72a20.4,20.4,0,0,0-.11,2.59A60.37,60.37,0,0,0,52,129.65L41,162l33.74-10.69a61,61,0,0,0,29.37,7.47c33.63,0,60.93-27,60.93-60.41,0-.52-.1-.93-.1-1.45Z"/></svg>