<?xml version="1.0" encoding="utf-8"?>
<!-- Generator: Adobe Illustrator 24.1.2, SVG Export Plug-In . SVG Version: 6.00 Build 0)  -->
<svg version="1.1" id="Capa_1" xmlns="http://www.w3.org/2000/svg" xmlns:xlink="http://www.w3.org/1999/xlink" x="0px" y="0px"
	 viewBox="0 0 427.7 297" style="enable-background:new 0 0 427.7 297;" xml:space="preserve">
<style type="text/css">
	.st0{fill:#F29100;}
</style>
<g id="XMLID_1083_">
	<path id="XMLID_1026_" class="st0" d="M29.1,19.5c0,0-1.3,7,0,12.3c1.3,5.3-1.6,12.9-0.3,16.6s4.3,3.3,4.3,3.3v4h5v8.6
		c0,0,3,1.7,5,6.3c2,4.6,7.9,2.3,7.9,2.3v12.9l6.3,5.6v11.3c0,0,7.6-9.9,10.9,0c3.3,9.9,2.6,21.5,8.3,25.8
		c5.6,4.3-1.3,10.9,1.7,13.6c3,2.6,25.2,15.2,15.2,21.9c-9.9,6.6-9.9,4-11.6-2c-1.7-6-2.6-8.3-11.9-12.9
		c-9.3-4.6-16.9-14.2-15.6-21.2c1.3-7,5.3-12.3-3.6-18.2c-8.9-6-7.9-10.9-7.9-10.9s-2.6,5.6-8.3,0.3c-5.6-5.3-7-2.6-8.9-7.6
		c-2-5-4.6-4,1.3-10.6c6-6.6,11.2-8.6-3.7-21.5C8.3,46.3,13.2,42.6,13.2,41c0,0-3.3-4.6-2.6-8.9l-5,2.3c0,0,5-8.6,4.3-11.9
		c-0.7-3.3-4.3-3-4.3-3S2.3,11.2,0.3,8.5c0,0,13.9-5.3,18.5-6.6c4.6-1.3,30.8,15.2,34.4,16.2c3.6,1,16.9,7,26.2,13.2
		c9.3,6.3,27.5,1.7,32.1,1.3c4.6-0.3,7-7.3,17.2-7.6c10.3-0.3,21.2,2.6,23.2,11.3c2,8.6,11.9,7.6,13.6,10.6c1.7,3,0,9.6,3.6,14.2
		c3.6,4.6,10.9,13.9,18.2,5.3s6.3-12.3,15.6-9.9c9.3,2.3,21.2,7.4,29.8,28.2c8.6,20.8,12.6,25.8,15.2,25.8c2.6,0,9.9-2,20.9,9.9
		c0,0-7,10.6,0,15.6c0,0-4.6,8.6-3.3,13.2c1.3,4.6,3.3,14.6-0.3,24.8c-3.6,10.3,3.6,11.9,6.3,14.6c2.6,2.6,2.3,10.6,4.6,12.9
		s10.6,13.2,15.9,20.9c5.3,7.6,8.9,9.9,15.9,10.3c7,0.3,7,6.3,9.9,6.6c3,0.3,5.3,1.7,20.5-5.3c15.2-7,16.9-1.3,20.5-0.7
		c3.6,0.7,4.3,0.3,4.3-4.3l-5.3-1.7c0,0,27.9-0.1,29.2-12.1c1.3-11.9-9.3-28.7,2.9-31c0,0,9.3-4.6,13.2-7.3c4-2.6,7.3,2,11.3,1.3
		c4-0.7,7.6-3,11.3-1.3c3.6,1.7-0.3,15.9-4.3,20.2c-4,4.3-6.3,16.9-6.3,16.9l4,1.7c0,0-4,11.9-6,10.6c-2-1.3-1.3-6.6-3.3-6.3
		c-2,0.3-1,5.3-2,7.6c-1,2.3-9.9,13.6-14.6,14.2c-4.6,0.7-18.5,0.3-21.2,3.3c-2.6,3-4,7.3,1.3,12.6c5.3,5.3,7.9,6.6,7.9,6.6
		s-7,7-14.6,7.6c-7.6,0.7-11.3,14.9-10.9,23.2c0,0-15.2-4.3-22.5-17.6c0,0-0.7-11.3-17.6-2.6c0,0,2.6-10.3-3-7.6
		c-5.6,2.6-15.2,17.9-25.2,16.2c-9.9-1.7-15.9-6.6-26.2-6.3c0,0-4.6-5.6-8.3-6.3c-3.6-0.7-5,0.3-5,0.3s0.3-4-4-4.3
		c-4.3-0.3-12.9,0.7-18.2-5c-5.3-5.6-6.2-7-12.4-8.9c-6.2-2-5.9-4.3-6.8-7.9c-1-3.6-6.3,7-6.3,7s-11.9-1.3-14.9-6
		s-8.6-14.6-16.6-18.5c-7.9-4-20.9-6.6-19.5-18.9c0,0,4-9.3,2.6-16.2c-1.3-7-4.3-16.2-5-21.9c-0.7-5.6-7-10.8-10.9-11.9
		c-4-1-7.6-2.4-7.6-2.4s1-10.6-0.7-10.6c-1.7,0-2.6,2.6-2.6,2.6s-9.3-7.2-12.3-8.9c0,0,2.6-5.6-1.7-7.3c-4.3-1.7-7,0-8.3-7.6
		c0,0-8.9,1-8.9-4c0-5,4-10.3,2-12.9c-2-2.6-4.3-1.3-4.3-1.3L80.1,95.6c0,0,1-8.6-0.7-10.3c-1.7-1.7-8.9,1-10.9-4
		c-2-5-4.6-11.3-9.3-12.6c0,0-1-12.6-4.6-19.2C51,43,48.7,33.4,50,29.1c0,0-6.6,1.3-9.3-2c-2.6-3.3-6,0-7.6-2
		C31.5,23.1,29.1,19.5,29.1,19.5z"/>
	<polygon id="XMLID_1080_" class="st0" points="356,295.3 360.4,288.5 350.6,272.5 345.3,283.9 346.9,288.5 	"/>
	<path id="XMLID_1081_" class="st0" d="M381.5,264.5l4.4-6.9l-16-1.1c0,0-6.7,3.6-6.9,4c-0.2,0.4-0.4,4.6,0,4.8
		C363.3,265.5,381.5,264.5,381.5,264.5z"/>
	<path id="XMLID_1082_" class="st0" d="M95.4,161.8l4.5-7.1c0,0-5.7-1.4-6.8-0.9c-1.1,0.5-4.5,1.8-5.3,2.9c-0.7,1.1-1.3,4.5-1.1,5
		C86.8,162.3,95.4,161.8,95.4,161.8z"/>
	<path id="XMLID_989_" class="st0" d="M0.3,8.5l4.4-6.9l6.8,1.8l2.2,5.1c0,0-4.7,5.5-5.3,5.7c-0.5,0.2-2.2,0.5-2.7,0.9
		C5.1,15.5,0.3,8.5,0.3,8.5z"/>
</g>
</svg>
