<svg width="135" height="135" viewBox="0 0 135 135" fill="none" xmlns="http://www.w3.org/2000/svg">
<g clip-path="url(#clip0_640_532)">
<path fill-rule="evenodd" clip-rule="evenodd" d="M9 18C6.61305 18 4.32387 18.9482 2.63604 20.636C0.948212 22.3239 0 24.6131 0 27L0 108C0 110.387 0.948212 112.676 2.63604 114.364C4.32387 116.052 6.61305 117 9 117H126C128.387 117 130.676 116.052 132.364 114.364C134.052 112.676 135 110.387 135 108V27C135 24.6131 134.052 22.3239 132.364 20.636C130.676 18.9482 128.387 18 126 18H9ZM9 27H126V35.325C125.232 35.3241 124.479 35.5426 123.831 35.955L67.5 71.703L11.169 35.955C10.5208 35.5426 9.76826 35.3241 9 35.325V27ZM9 44.172V108H126V44.172L69.669 79.92C69.0203 80.3314 68.2681 80.5498 67.5 80.5498C66.7319 80.5498 65.9797 80.3314 65.331 79.92L9 44.172Z" fill="white"/>
</g>
<defs>
<clipPath id="clip0_640_532">
<rect width="135" height="135" fill="white"/>
</clipPath>
</defs>
</svg>
